<svg width="20" height="20" viewBox="0 0 20 20" fill="none" xmlns="http://www.w3.org/2000/svg">
<path d="M9.99999 18.3334C14.6024 18.3334 18.3333 14.6025 18.3333 10.0001C18.3333 5.39771 14.6024 1.66675 9.99999 1.66675C5.39762 1.66675 1.66666 5.39771 1.66666 10.0001C1.66666 14.6025 5.39762 18.3334 9.99999 18.3334Z" stroke="#00CEFF" stroke-width="1.66667" stroke-linecap="round" stroke-linejoin="round"/>
<path d="M13.5333 6.46655L12.03 10.9757C11.9482 11.2212 11.8103 11.4443 11.6274 11.6272C11.4444 11.8102 11.2213 11.9481 10.9758 12.0299L6.46667 13.5332L7.97001 9.02405C8.05183 8.77857 8.18968 8.5555 8.37265 8.37253C8.55563 8.18956 8.77869 8.0517 9.02417 7.96989L13.5333 6.46655Z" stroke="#00CEFF" stroke-width="1.66667" stroke-linecap="round" stroke-linejoin="round"/>
</svg>
