<svg width="18" height="18" viewBox="0 0 18 18" fill="none" xmlns="http://www.w3.org/2000/svg">
<g clip-path="url(#clip0_171_8268)">
<path d="M2.24401 12.2565C2.35429 12.5347 2.37884 12.8395 2.31451 13.1318L1.51576 15.5993C1.49003 15.7244 1.49668 15.854 1.53509 15.9759C1.57351 16.0977 1.64241 16.2077 1.73526 16.2955C1.82812 16.3832 1.94184 16.4458 2.06566 16.4773C2.18948 16.5087 2.31928 16.508 2.44276 16.4753L5.00251 15.7268C5.2783 15.6721 5.56391 15.696 5.82676 15.7958C7.4283 16.5437 9.24254 16.7019 10.9494 16.2426C12.6562 15.7832 14.146 14.7358 15.1558 13.285C16.1656 11.8343 16.6306 10.0736 16.4687 8.31343C16.3069 6.55328 15.5285 4.90687 14.2711 3.66466C13.0136 2.42246 11.3578 1.66429 9.5958 1.52394C7.83381 1.38358 6.07886 1.87005 4.64059 2.89752C3.20232 3.92499 2.17316 5.42742 1.73468 7.13974C1.2962 8.85206 1.47659 10.6642 2.24401 12.2565Z" stroke="#00CEFF" stroke-width="1.5" stroke-linecap="round" stroke-linejoin="round"/>
</g>
<defs>
<clipPath id="clip0_171_8268">
<rect width="18" height="18" fill="white"/>
</clipPath>
</defs>
</svg>
