<svg width="18" height="18" viewBox="0 0 18 18" fill="none" xmlns="http://www.w3.org/2000/svg">
<g clip-path="url(#clip0_171_8246)">
<path d="M9 15V16.5" stroke="#00CEFF" stroke-width="1.5" stroke-linecap="round" stroke-linejoin="round"/>
<path d="M9 1.5V3" stroke="#00CEFF" stroke-width="1.5" stroke-linecap="round" stroke-linejoin="round"/>
<path d="M12.75 15V16.5" stroke="#00CEFF" stroke-width="1.5" stroke-linecap="round" stroke-linejoin="round"/>
<path d="M12.75 1.5V3" stroke="#00CEFF" stroke-width="1.5" stroke-linecap="round" stroke-linejoin="round"/>
<path d="M1.5 9H3" stroke="#00CEFF" stroke-width="1.5" stroke-linecap="round" stroke-linejoin="round"/>
<path d="M1.5 12.75H3" stroke="#00CEFF" stroke-width="1.5" stroke-linecap="round" stroke-linejoin="round"/>
<path d="M1.5 5.25H3" stroke="#00CEFF" stroke-width="1.5" stroke-linecap="round" stroke-linejoin="round"/>
<path d="M15 9H16.5" stroke="#00CEFF" stroke-width="1.5" stroke-linecap="round" stroke-linejoin="round"/>
<path d="M15 12.75H16.5" stroke="#00CEFF" stroke-width="1.5" stroke-linecap="round" stroke-linejoin="round"/>
<path d="M15 5.25H16.5" stroke="#00CEFF" stroke-width="1.5" stroke-linecap="round" stroke-linejoin="round"/>
<path d="M5.25 15V16.5" stroke="#00CEFF" stroke-width="1.5" stroke-linecap="round" stroke-linejoin="round"/>
<path d="M5.25 1.5V3" stroke="#00CEFF" stroke-width="1.5" stroke-linecap="round" stroke-linejoin="round"/>
<path d="M13.5 3H4.5C3.67157 3 3 3.67157 3 4.5V13.5C3 14.3284 3.67157 15 4.5 15H13.5C14.3284 15 15 14.3284 15 13.5V4.5C15 3.67157 14.3284 3 13.5 3Z" stroke="#00CEFF" stroke-width="1.5" stroke-linecap="round" stroke-linejoin="round"/>
<path d="M11.25 6H6.75C6.33579 6 6 6.33579 6 6.75V11.25C6 11.6642 6.33579 12 6.75 12H11.25C11.6642 12 12 11.6642 12 11.25V6.75C12 6.33579 11.6642 6 11.25 6Z" stroke="#00CEFF" stroke-width="1.5" stroke-linecap="round" stroke-linejoin="round"/>
</g>
<defs>
<clipPath id="clip0_171_8246">
<rect width="18" height="18" fill="white"/>
</clipPath>
</defs>
</svg>
