<svg width="18" height="18" viewBox="0 0 18 18" fill="none" xmlns="http://www.w3.org/2000/svg">
<path d="M7.875 2.25L6 6.75L9 16.5L12 6.75L10.125 2.25" stroke="#00CEFF" stroke-width="1.5" stroke-linecap="round" stroke-linejoin="round"/>
<path d="M12.75 2.25C12.9829 2.25 13.2125 2.30422 13.4208 2.40836C13.6291 2.5125 13.8103 2.66371 13.95 2.85L16.2 5.85C16.393 6.10737 16.4981 6.41996 16.4999 6.74164C16.5016 7.06332 16.3999 7.37704 16.2098 7.6365L10.2173 15.876C10.0783 16.0691 9.89545 16.2264 9.68373 16.3349C9.47201 16.4434 9.23753 16.5 8.99963 16.5C8.76173 16.5 8.52724 16.4434 8.31553 16.3349C8.10381 16.2264 7.92094 16.0691 7.78201 15.876L1.78951 7.6365C1.59946 7.37696 1.49789 7.06319 1.49978 6.74152C1.50167 6.41984 1.60692 6.10729 1.80001 5.85L4.0485 2.85225C4.18814 2.66534 4.36945 2.51358 4.57803 2.40903C4.78661 2.30448 5.01669 2.25003 5.25001 2.25H12.75Z" stroke="#00CEFF" stroke-width="1.5" stroke-linecap="round" stroke-linejoin="round"/>
<path d="M1.5 6.75H16.5" stroke="#00CEFF" stroke-width="1.5" stroke-linecap="round" stroke-linejoin="round"/>
</svg>
