<svg width="91" height="31" viewBox="0 0 91 31" fill="none" xmlns="http://www.w3.org/2000/svg">
<path d="M48.4926 18.9017H50.8147V22.1087H48.4926V18.9017Z" fill="#1B9AD6"/>
<path d="M57.2478 16.4773H50.8147V12.8123H48.4926V18.514H57.2478V22.1221H59.5132V12.8123H57.2478V16.4773Z" fill="#1B9AD6"/>
<path d="M71.0973 13.5388C70.8411 13.2853 70.4707 13.1021 69.9574 12.9749C69.516 12.8691 68.9461 12.813 68.2476 12.813H64.8207C64.1151 12.813 63.5459 12.8691 63.1037 12.9749C62.6623 13.0879 62.22 13.2853 61.9638 13.5388C61.686 13.7646 61.5224 14.0671 61.3867 14.5465L61.1512 14.7794H68.2037C68.353 14.7794 68.503 14.7794 68.6308 14.815C68.7234 14.815 68.816 14.8363 68.887 14.8363C69.0937 14.8924 69.2358 14.984 69.3141 15.0756C69.3995 15.1814 69.5136 15.3291 69.5495 15.4562C69.6062 15.6536 69.6062 15.8582 69.6062 16.1117V18.8109C69.6062 19.0644 69.6062 19.2831 69.5495 19.4806C69.4929 19.6638 69.421 19.7554 69.3141 19.847C69.1999 19.9386 69.0929 20.0302 68.887 20.0863C68.816 20.0863 68.7234 20.0863 68.6308 20.1005C68.5022 20.1005 68.353 20.136 68.2037 20.136H64.891C64.7058 20.136 64.5773 20.136 64.4496 20.1005C64.3354 20.1005 64.2428 20.0863 64.1502 20.0863C63.9506 20.0302 63.8014 19.9386 63.7295 19.847C63.6577 19.7554 63.601 19.6638 63.5443 19.4806C63.4877 19.2831 63.4877 19.0786 63.4877 18.8109V16.1117C63.4877 15.8582 63.4877 15.6394 63.5443 15.4349V15.1814H61.2222V18.8606C61.2222 19.4671 61.2789 19.9741 61.3859 20.3548C61.5216 20.7986 61.6996 21.1232 61.963 21.3767C62.2552 21.6159 62.6822 21.7992 63.0814 21.9405C63.5228 22.0534 64.0999 22.1237 64.7984 22.1237H68.2253C68.9237 22.1237 69.4937 22.0748 69.9351 21.9618C70.3414 21.7999 70.7685 21.6309 71.0606 21.398C71.3169 21.1232 71.5021 20.7986 71.6306 20.3548C71.7447 19.9741 71.8014 19.4671 71.8014 18.8606V16.0066C71.8014 15.4357 71.7447 14.9634 71.6306 14.5615C71.5236 14.0679 71.3169 13.7441 71.0463 13.5396H71.0957L71.0973 13.5388Z" fill="#1B9AD6"/>
<path d="M46.5976 17.7882C46.4834 17.5347 46.3414 17.2946 46.0779 17.0554C45.8784 16.8935 45.5862 16.7103 45.1592 16.6605C44.8247 16.5476 44.3825 16.4915 43.87 16.4915H39.5738C39.3032 16.4915 39.0965 16.456 38.9544 16.3644C38.8762 16.2941 38.8402 16.1109 38.8402 15.8708V15.2153H36.7385V15.9269C36.7385 16.3494 36.7385 16.6952 36.8526 16.9843C36.9021 17.3294 37.0881 17.5695 37.2589 17.7874C37.5511 18.0267 37.8289 18.1538 38.121 18.2036C38.4555 18.3165 38.8977 18.3726 39.4102 18.3726H43.763C44.0552 18.3726 44.297 18.4216 44.4399 18.4997C44.5892 18.6403 44.661 18.7746 44.661 19.0423V19.5358C44.661 19.7546 44.59 19.9378 44.4399 20.0294C44.3114 20.121 44.0552 20.1771 43.7415 20.1771H36.6459V22.1435H43.8484C44.3681 22.1435 44.8103 22.0874 45.1376 21.9816C45.5647 21.8473 45.8432 21.7423 46.042 21.5796C46.2488 21.3751 46.4268 21.1429 46.5617 20.7551C46.6686 20.4874 46.7253 20.0997 46.7253 19.6274V18.9364C46.7253 18.514 46.6686 18.1538 46.5617 17.823V17.7874H46.5976V17.7882Z" fill="#1B9AD6"/>
<path d="M38.1913 12.9252C37.8281 13.0523 37.5503 13.2142 37.3866 13.4535C37.1655 13.6296 36.9947 13.8902 36.867 14.2495V14.4185C36.867 14.4888 36.8311 14.5591 36.8311 14.672V14.7992H46.8187V12.8328H39.4669C39.0039 12.8328 38.5481 12.8818 38.2487 12.9386H38.1921V12.9244L38.1913 12.9252Z" fill="#1B9AD6"/>
<path d="M83.2435 13.5032C83.1293 13.2355 82.9441 12.9749 82.7589 12.8691C82.5378 12.7072 82.2672 12.6298 81.8753 12.6298C81.4833 12.6298 81.2694 12.7072 81.0491 12.8691C80.8639 12.9962 80.6787 13.2355 80.5717 13.5032L78.2137 18.6624L79.261 21.2345L81.8753 15.7863L84.4185 21.3609C84.5326 21.6286 84.7178 21.8892 84.9525 22.0518C85.1377 22.2137 85.3939 22.2911 85.8002 22.2911C86.2065 22.2911 86.4133 22.2137 86.648 22.0518C86.648 22.0163 86.6839 21.9958 86.7046 21.9816H86.8539L85.3221 18.1902L83.2562 13.5032H83.2203H83.2419H83.2435Z" fill="#1B9AD6"/>
<path d="M85.9295 18.6837L87.091 21.4675L87.2195 21.2345C87.3337 21.0157 87.4406 20.7409 87.554 20.41C87.7959 19.9165 88.017 19.43 88.2165 18.9017C88.4728 18.3734 88.7505 17.8443 88.9717 17.2386C89.2638 16.6044 89.5272 16.0406 89.7268 15.5115C89.8761 15.2367 90.0046 14.9618 90.1116 14.7083C90.2257 14.4691 90.3327 14.2716 90.4253 14.0529C90.5961 13.5593 90.7597 13.2497 90.8523 13.031L90.9449 12.8478H88.4161L85.9152 18.6837H85.9295Z" fill="#1B9AD6"/>
<path d="M77.437 17.8798L75.3927 12.8478H72.8351L76.44 21.3759C76.5326 21.6293 76.7034 21.8694 76.903 22.074C77.1241 22.2501 77.4163 22.3275 77.7866 22.3275C78.157 22.3275 78.3997 22.2501 78.6344 22.0882C78.6703 22.0526 78.7126 22.0179 78.7485 21.9966C78.8196 21.9405 78.8906 21.8907 78.9481 21.7778V21.7217L78.086 19.4663L77.4163 17.8948H77.4378V17.8806L77.437 17.8798Z" fill="#1B9AD6"/>
<path d="M7.35184 26.4995H18.1162L16.0288 23.2009H9.32511L13.2501 16.9282L15.387 20.3958L20.3385 28.3743L21.6277 30.5096H26.4794L16.285 14.3775C15.9218 13.7781 15.6081 13.3974 15.2162 13.1021C14.7388 12.7428 14.0619 12.5595 13.2501 12.5595C12.4383 12.5595 11.8683 12.757 11.391 13.1021C10.8921 13.4685 10.4866 13.9052 10.2088 14.3775L0 30.5239H4.84455L7.33827 26.535V26.4995H7.35264H7.35184Z" fill="#1B9AD6"/>
<path d="M29.7354 12.9394H33.9031V30.4883H29.7354V12.9394Z" fill="#1B9AD6"/>
<path d="M64.044 9.33122C64.4504 9.16933 64.8702 9.00665 65.1696 8.76737C65.4402 8.49255 65.611 8.16798 65.7395 7.73127C65.8321 7.40038 65.9606 6.87128 65.9606 6.23714V3.37602C65.9606 2.93931 65.8896 2.45996 65.7395 1.93796C65.6254 1.44439 65.4258 1.11351 65.148 0.916078C64.8918 0.662582 64.5214 0.479368 64.0081 0.352225C63.5667 0.239297 62.9896 0.183228 62.2911 0.183228H54.9393V2.15671H62.256C62.4052 2.15671 62.5481 2.15671 62.683 2.19225H62.9393C63.1388 2.24121 63.2881 2.33282 63.36 2.42521C63.4525 2.51682 63.5667 2.68582 63.6018 2.81296C63.6585 3.01039 63.6585 3.20782 63.6585 3.46842V6.16054C63.6585 6.42114 63.6585 6.61857 63.6154 6.816C63.5795 6.87207 63.5443 6.95025 63.5228 6.99921C63.4869 7.0766 63.4517 7.14689 63.3943 7.20375C63.2658 7.29535 63.1237 7.38696 62.988 7.38696H62.952C62.7309 7.43592 62.5314 7.49278 62.2751 7.49278H57.2813V2.55236H54.9592V9.49469H62.3111C63.0095 9.49469 63.5795 9.44573 64.0209 9.3328H64.0425L64.044 9.33122Z" fill="#1B9AD6"/>
<path d="M43.9259 6.74413C43.9259 6.61698 43.8899 6.49063 43.8899 6.36348V0.30957H46.1554V6.30742C46.1554 6.50484 46.2048 6.76545 46.248 6.90681V7.01973L46.4691 7.23848H43.9259V6.74492V6.74413Z" fill="#1B9AD6"/>
<path d="M43.9051 7.60413H52.9309V9.53497H47.2961C46.6694 9.53497 46.0995 9.4789 45.6006 9.36597C45.1376 9.18986 44.8095 9.02086 44.5533 8.82344C44.2539 8.51308 44.0336 8.16798 43.9267 7.80155V7.60413H43.9051Z" fill="#1B9AD6"/>
<path d="M25.8528 2.28306H18.7931L19.035 2.04378C19.1419 1.57153 19.3271 1.26117 19.6049 1.04321C19.8611 0.789717 20.2315 0.606505 20.7448 0.479362C21.1862 0.366433 21.7634 0.310364 22.4618 0.310364H25.8887C26.5872 0.310364 27.1571 0.366433 27.5985 0.479362C28.04 0.585183 28.4894 0.789717 28.7456 1.04321C29.0234 1.26196 29.2014 1.58575 29.3156 2.0651C29.4225 2.44574 29.4792 2.93931 29.4792 3.50316V6.36428C29.4792 6.96367 29.4225 7.47777 29.3156 7.85841C29.187 8.29512 29.0234 8.61969 28.7456 8.88029C28.4463 9.11326 28.0264 9.29647 27.6201 9.44415C27.1787 9.54997 26.6087 9.62736 25.9031 9.62736H22.4762C21.7777 9.62736 21.2293 9.57129 20.7664 9.45836C20.36 9.29647 19.9402 9.13379 19.6408 8.89451C19.363 8.61969 19.1994 8.29512 19.0709 7.85841C18.9567 7.47777 18.9072 6.96367 18.9072 6.36428V2.68502H21.2293V2.93852C21.1727 3.13595 21.1727 3.34048 21.1727 3.60819V6.30742C21.1727 6.56092 21.1727 6.77967 21.2293 6.9842C21.2788 7.18163 21.3219 7.25191 21.4073 7.34352C21.4856 7.42091 21.6285 7.52673 21.8344 7.5828H22.1266C22.2551 7.5828 22.4044 7.61834 22.568 7.61834H25.8879C26.0372 7.61834 26.1801 7.61834 26.3086 7.5828H26.572C26.7716 7.52673 26.9208 7.43513 26.9927 7.34352C27.1068 7.2377 27.1994 7.14609 27.2345 6.9842C27.284 6.77967 27.284 6.58224 27.284 6.30742V3.60819C27.284 3.3547 27.284 3.13595 27.2345 2.95273C27.1986 2.82559 27.106 2.68502 26.9927 2.57209C26.9216 2.50181 26.7716 2.38888 26.572 2.33281H26.3086C26.1801 2.33281 26.038 2.29727 25.8879 2.29727H25.852V2.28306H25.8528Z" fill="#1B9AD6"/>
<path d="M3.61126 8.74603L0 0.217957H2.54321L4.58752 5.27131L5.25006 6.83572L6.13372 9.09824V9.1472C6.06268 9.23881 6.0052 9.3162 5.91261 9.36595C5.87668 9.4086 5.84156 9.42202 5.80564 9.45756H5.78409C5.5486 9.64077 5.32829 9.71816 4.93635 9.71816C4.54441 9.71816 4.27381 9.64077 4.05269 9.47888H4.03832C3.83158 9.26013 3.66794 9.02085 3.57534 8.76735H3.61126V8.74603Z" fill="#1B9AD6"/>
<path d="M6.44663 8.64021L5.39933 6.05392L7.75735 0.894741C7.8715 0.619922 8.03514 0.366425 8.2347 0.239282C8.45581 0.0773915 8.69768 0 9.06807 0C9.43845 0 9.73061 0.0773915 9.95172 0.239282C10.1369 0.366425 10.3221 0.605707 10.4291 0.894741L12.4949 5.58167L14.0196 9.35253H13.8775C13.8775 9.35253 13.8416 9.38807 13.8208 9.42282C13.579 9.60603 13.3578 9.67631 12.9731 9.67631C12.5883 9.67631 12.3105 9.60603 12.1253 9.44335C11.8835 9.26014 11.719 9.04139 11.5913 8.74525L9.04811 3.17068L6.43386 8.61889H6.44822V8.64021H6.44663Z" fill="#1B9AD6"/>
<path d="M14.283 8.83764L13.1216 6.05391L15.6225 0.217957H18.1513L18.0587 0.401169C17.9446 0.619919 17.7809 0.929485 17.6316 1.40884C17.5247 1.62759 17.4105 1.84555 17.3036 2.0643C17.1894 2.31779 17.0473 2.59261 16.9116 2.86033C16.6905 3.38864 16.4343 3.95249 16.1565 4.59374C15.9354 5.19313 15.6648 5.74277 15.4013 6.27108C15.2018 6.7994 14.995 7.29297 14.7604 7.77943C14.6462 8.11032 14.5392 8.38592 14.4259 8.60388L14.2974 8.83685H14.283V8.83764Z" fill="#1B9AD6"/>
<path d="M33.4752 9.62659H31.2098V2.64239H33.4752V4.8133H38.3621C38.5473 4.8133 38.6902 4.8133 38.8394 4.77777H39.1739C39.3735 4.7217 39.5227 4.68616 39.6153 4.63009C39.7439 4.53849 39.779 4.4682 39.8364 4.31974C39.8859 4.21392 39.929 4.0307 39.929 3.75588V3.26231C39.929 3.10042 39.8859 2.91721 39.8364 2.71978C39.7798 2.62818 39.7439 2.53657 39.6153 2.45918C39.5227 2.41022 39.3735 2.37468 39.1739 2.31861H38.8394C38.7109 2.31861 38.5473 2.28307 38.3621 2.28307H31.2314V0.352234H38.4906C39.1747 0.352234 39.7231 0.401196 40.1294 0.458055C40.685 0.570984 41.0338 0.697338 41.326 0.916087C41.6038 1.13484 41.8456 1.42387 42.0101 1.76897C42.117 2.19147 42.1737 2.62897 42.1737 3.1715V3.82696C42.1737 4.43345 42.1027 4.84884 41.9526 5.1592C41.8456 5.5043 41.6038 5.80044 41.2541 6.01919C40.9763 6.23794 40.606 6.3643 40.0576 6.47012C39.9083 6.47012 39.7439 6.50565 39.5379 6.52619L42.3238 9.64159H39.3743L36.5748 6.56172H33.4617V9.64159H33.476V9.62738L33.4752 9.62659Z" fill="#1B9AD6"/>
<path d="M37.6213 23.835L36.7377 24.695V30.5239H81.9679L82.8515 29.6496V23.8208H37.6213V23.835Z" stroke="white" stroke-width="0.5" stroke-miterlimit="1.35"/>
<path d="M49.8033 28.2827H47.3527L46.7828 29.213H45.7498L48.0863 25.5132C48.1645 25.386 48.2571 25.2944 48.3426 25.2241C48.4351 25.1467 48.5844 25.097 48.7489 25.097C48.9133 25.097 49.0833 25.1459 49.1759 25.2241C49.2685 25.2944 49.3396 25.386 49.4114 25.5132L51.7551 29.213H50.7221L50.43 28.7407L49.2685 26.8802L48.7345 26.0273L47.7375 27.5917H49.3619L49.8033 28.2827Z" fill="white"/>
<path d="M60.8032 28.2827H58.3526L57.7826 29.213H56.7497L59.0861 25.5132C59.1644 25.386 59.2498 25.2944 59.3424 25.2241C59.435 25.1467 59.5842 25.097 59.7487 25.097C59.9131 25.097 60.0832 25.1459 60.1757 25.2241C60.2683 25.2944 60.3394 25.386 60.4112 25.5132L62.7549 29.213H61.722L61.4298 28.7407L60.2683 26.8802L59.7343 26.0273L58.7373 27.5917H60.3617L60.8032 28.2827Z" fill="white"/>
<path d="M78.7485 28.2827H76.2979L75.728 29.213H74.695L77.0315 25.5132C77.1097 25.386 77.1951 25.2944 77.2877 25.2241C77.3803 25.1467 77.5296 25.097 77.694 25.097C77.8585 25.097 78.0285 25.1459 78.1355 25.2241C78.2281 25.2944 78.3063 25.386 78.3773 25.5132L80.7138 29.213H79.6881L79.3887 28.7407L78.2273 26.8802L77.6932 26.0273L76.7026 27.5917H78.3199L78.7613 28.2827H78.7469H78.7485Z" fill="white"/>
<path d="M73.0922 25.2028H73.9758V29.2129H73.0922V25.2028Z" fill="white"/>
<path d="M53.7291 29.2129C53.4298 29.2129 53.1951 29.1916 52.974 29.1427C52.7888 29.0653 52.6395 28.995 52.511 28.9034C52.3825 28.7762 52.2899 28.6499 52.2548 28.4667C52.2548 28.4453 56.1941 28.4453 56.1941 28.4453V29.2137H53.7076H53.7291V29.2129ZM52.2188 28.1555V25.2028H53.1025V27.8104C53.1025 27.902 53.1025 28.0292 53.152 28.0994V28.1768H52.2188V28.1555Z" fill="white"/>
<path d="M44.4751 29.1426V26.4995L42.509 29.051C42.4164 29.1782 42.2671 29.2129 42.1027 29.2129C41.9382 29.2129 41.789 29.1569 41.7107 29.051L39.7446 26.4995L38.9328 25.4421V25.386C38.9328 25.2589 38.9895 25.1672 39.0821 25.1325C39.1747 25.0622 39.3032 25.0409 39.4102 25.0409C39.5243 25.0409 39.5954 25.0622 39.6664 25.097C39.7446 25.1112 39.7949 25.1672 39.8372 25.2375L42.117 28.2471L44.404 25.2375C44.4607 25.1672 44.4966 25.1104 44.5676 25.097C44.6243 25.0756 44.7169 25.0409 44.8095 25.0409C44.9588 25.0409 45.0514 25.0622 45.1376 25.1325C45.2302 25.1886 45.2869 25.2802 45.2869 25.386V29.1426H44.4751ZM39.7446 26.9717V29.1426H38.9328V25.9151L39.7446 26.9725V26.9717Z" fill="white"/>
<path d="M68.0409 29.2129V28.4446H71.1181C71.2674 28.4446 71.3743 28.4303 71.4526 28.3743C71.5236 28.3182 71.5811 28.2266 71.5811 28.1208V27.902C71.5811 27.7543 71.5244 27.6833 71.4526 27.613C71.3743 27.5569 71.2674 27.5356 71.1181 27.5356H69.1808C68.9596 27.5356 68.7816 27.5214 68.6324 27.4653C68.4831 27.444 68.3761 27.3737 68.262 27.3034C68.1909 27.2118 68.1127 27.0989 68.0983 26.9725C68.0417 26.8454 68.0417 26.719 68.0417 26.5145V26.261H68.8535V26.5003C68.8535 26.6274 68.8535 26.719 68.9245 26.7538C69.0027 26.8099 69.0953 26.8241 69.2382 26.8241H71.1404C71.3616 26.8241 71.5396 26.8454 71.6888 26.9015C71.8525 26.9157 71.9882 26.9931 72.0736 27.0634C72.1662 27.155 72.2444 27.2466 72.3019 27.3737C72.3514 27.5214 72.3729 27.6627 72.3729 27.846V28.1563C72.3729 28.3395 72.3729 28.5227 72.3019 28.6286C72.2452 28.7762 72.1662 28.8678 72.0736 28.9594C71.9882 29.0297 71.8525 29.0866 71.6888 29.1213C71.5396 29.1774 71.3608 29.1916 71.1404 29.1916H68.0057H68.0417V29.2129H68.0409ZM68.0768 25.9712V25.8093C68.1335 25.6616 68.2053 25.5487 68.2979 25.4784C68.3761 25.3868 68.4831 25.3165 68.6324 25.2597C68.7816 25.2383 68.9604 25.2036 69.1664 25.2036H72.3721V25.972H68.0624H68.0768V25.9712Z" fill="white"/>
<path d="M64.2867 29.2129V27.3026L61.9215 25.202H63.1253L64.2436 26.2026L65.3548 27.1542L65.1696 27.316V29.1908H64.2859V29.2121L64.2867 29.2129ZM64.9844 26.4426L66.4236 25.202H67.542L65.5759 26.9709L64.9628 26.4426H64.9844Z" fill="white"/>
</svg>
