<svg width="188" height="115" viewBox="0 0 188 115" fill="none" xmlns="http://www.w3.org/2000/svg">
<path d="M7.07481 61.4411C7.07481 61.4411 7.07198 61.4722 7.08615 61.4807C7.10033 61.4892 7.11735 61.4835 7.12585 61.4694C7.13436 61.4552 7.12869 61.4383 7.11451 61.4298C7.10033 61.4213 7.08332 61.4269 7.07481 61.4411Z" fill="#00A5A3"/>
<path d="M6.71753 57.9091C6.72603 57.8949 6.74305 57.8893 6.75723 57.8978C6.7714 57.9063 6.77707 57.9232 6.76857 57.9374C6.76006 57.9515 6.74305 57.9572 6.72887 57.9487C6.71469 57.9402 6.70902 57.9232 6.71753 57.9091Z" fill="#00A5A3"/>
<path d="M6.59276 54.3598C6.60127 54.3457 6.62112 54.34 6.63529 54.3485C6.64947 54.357 6.65514 54.3768 6.64664 54.391C6.63813 54.4051 6.61828 54.4108 6.6041 54.4023C6.58992 54.3938 6.58425 54.374 6.59276 54.3598Z" fill="#00A5A3"/>
<path d="M6.70051 50.8102C6.70902 50.7961 6.72887 50.7904 6.74588 50.7989C6.7629 50.8074 6.76573 50.8272 6.75723 50.8414C6.74872 50.8555 6.72887 50.8612 6.71469 50.8527C6.69768 50.8442 6.69484 50.8244 6.70335 50.8102H6.70051Z" fill="#00A5A3"/>
<path d="M7.04079 47.275C7.04929 47.258 7.06914 47.2524 7.08616 47.2637C7.10317 47.275 7.10884 47.292 7.0975 47.309C7.08616 47.326 7.06914 47.3316 7.05213 47.3203C7.03511 47.309 7.02944 47.292 7.04079 47.275Z" fill="#00A5A3"/>
<path d="M7.61357 43.7711C7.62208 43.7541 7.64477 43.7485 7.66178 43.7598C7.67879 43.7711 7.68446 43.7909 7.67312 43.8079C7.66178 43.8249 7.64193 43.8306 7.62492 43.8192C7.6079 43.8079 7.60223 43.7881 7.61357 43.7711Z" fill="#00A5A3"/>
<path d="M8.41605 40.3128C8.40754 40.3298 8.41321 40.3524 8.43023 40.3609C8.44724 40.3694 8.46992 40.3637 8.47843 40.3468C8.48694 40.3298 8.48127 40.3071 8.46425 40.2986C8.44724 40.2902 8.42455 40.2958 8.41605 40.3128Z" fill="#00A5A3"/>
<path d="M22.4494 15.9605C22.4381 15.9831 22.4437 16.0086 22.4664 16.0199C22.4891 16.0312 22.5146 16.0256 22.526 16.0029C22.5373 15.9803 22.5316 15.9548 22.509 15.9406C22.4863 15.9265 22.4608 15.935 22.4494 15.9576V15.9605Z" fill="#00A5A3"/>
<path d="M25.0383 13.5264C25.027 13.549 25.0326 13.5773 25.0553 13.5886C25.078 13.5999 25.1064 13.5943 25.1177 13.5716C25.1291 13.549 25.1234 13.5207 25.1007 13.5094C25.078 13.4981 25.0497 13.5037 25.0383 13.5264Z" fill="#00A5A3"/>
<path d="M27.786 11.271C27.7718 11.2936 27.7803 11.3219 27.803 11.3361C27.8257 11.3502 27.8541 11.3417 27.8682 11.3191C27.8824 11.2964 27.8739 11.2681 27.8512 11.254C27.8285 11.2398 27.8002 11.2483 27.786 11.271Z" fill="#00A5A3"/>
<path d="M30.6755 9.19875C30.6897 9.17611 30.718 9.16762 30.7407 9.18177C30.7634 9.19592 30.7719 9.22422 30.7577 9.24687C30.7435 9.26951 30.7152 9.278 30.6925 9.26385C30.6698 9.2497 30.6613 9.22139 30.6755 9.19875Z" fill="#00A5A3"/>
<path d="M33.6926 7.32175C33.7067 7.29911 33.7351 7.29062 33.7606 7.30477C33.7861 7.31892 33.7918 7.34723 33.7776 7.3727C33.7634 7.39817 33.7351 7.40383 33.7096 7.38968C33.684 7.37553 33.6784 7.34723 33.6926 7.32175Z" fill="#00A5A3"/>
<path d="M36.8287 5.64695C36.8429 5.62431 36.8713 5.61581 36.8968 5.62997C36.9223 5.64412 36.928 5.67242 36.9138 5.69789C36.8996 5.72337 36.8713 5.72903 36.8457 5.71488C36.8202 5.70072 36.8145 5.67242 36.8287 5.64695Z" fill="#00A5A3"/>
<path d="M40.0698 4.18015C40.084 4.15751 40.1123 4.14902 40.135 4.16317C40.1577 4.17732 40.1662 4.20562 40.152 4.22827C40.1379 4.25091 40.1095 4.2594 40.0868 4.24525C40.0641 4.2311 40.0556 4.20279 40.0698 4.18015Z" fill="#00A5A3"/>
<path d="M43.4016 2.92917C43.4158 2.90653 43.4442 2.89804 43.464 2.91219C43.4839 2.92634 43.4952 2.95465 43.481 2.97446C43.4668 2.99427 43.4385 3.00559 43.4186 2.99144C43.396 2.98012 43.3875 2.94899 43.4016 2.92917Z" fill="#00A5A3"/>
<path d="M46.8043 1.89361C46.8157 1.87097 46.844 1.86531 46.8667 1.87663C46.8894 1.88795 46.8951 1.91626 46.8837 1.9389C46.8724 1.96154 46.844 1.9672 46.8214 1.95588C46.7987 1.94456 46.793 1.91626 46.8043 1.89361Z" fill="#00A5A3"/>
<path d="M50.2694 1.08455C50.2808 1.06474 50.3091 1.05625 50.329 1.06757C50.3488 1.07889 50.3573 1.1072 50.346 1.12701C50.3347 1.14682 50.3063 1.15531 50.2865 1.14399C50.2666 1.13267 50.2581 1.10437 50.2694 1.08455Z" fill="#00A5A3"/>
<path d="M53.7771 0.498615C53.7884 0.478803 53.8139 0.470312 53.8338 0.481633C53.8536 0.492955 53.8621 0.518428 53.848 0.53824C53.8338 0.558053 53.8111 0.566544 53.7913 0.555223C53.7714 0.543901 53.7629 0.518428 53.7771 0.498615Z" fill="#00A5A3"/>
<path d="M57.3187 0.144922C57.3301 0.125109 57.3556 0.119449 57.3754 0.13077C57.3953 0.142092 57.401 0.167565 57.3896 0.187377C57.3783 0.20719 57.3528 0.21285 57.3329 0.201529C57.3131 0.190208 57.3074 0.164734 57.3187 0.144922Z" fill="#00A5A3"/>
<path d="M60.8746 0.0199219C60.8859 0.000109456 60.9086 -0.00555125 60.9285 0.00577016C60.9483 0.0170916 60.954 0.0397344 60.9426 0.0595468C60.9313 0.0793593 60.9086 0.08502 60.8888 0.0736986C60.8689 0.0623772 60.8632 0.0397344 60.8746 0.0199219Z" fill="#00A5A3"/>
<path d="M64.4304 0.127475C64.4418 0.107663 64.4644 0.102002 64.4843 0.113324C64.5041 0.124645 64.5098 0.147288 64.4985 0.1671C64.4871 0.186913 64.4644 0.192573 64.4446 0.181252C64.4247 0.169931 64.4191 0.147288 64.4304 0.127475Z" fill="#00A5A3"/>
<path d="M67.9749 0.469502C67.9636 0.486484 67.9721 0.509127 67.9891 0.520448C68.0061 0.53177 68.0288 0.523279 68.0401 0.506297C68.0515 0.489314 68.043 0.466672 68.0259 0.45535C68.0089 0.444029 67.9863 0.45252 67.9749 0.469502Z" fill="#00A5A3"/>
<path d="M71.4854 1.04451C71.4939 1.02753 71.5166 1.02187 71.5336 1.03036C71.5506 1.03885 71.5563 1.06149 71.5478 1.07847C71.5393 1.09546 71.5166 1.10112 71.4995 1.09262C71.4825 1.08413 71.4769 1.06149 71.4854 1.04451Z" fill="#00A5A3"/>
<path d="M74.9476 1.84859C74.9391 1.86558 74.9476 1.88539 74.9618 1.89388C74.9788 1.90237 74.9987 1.89388 75.0072 1.87973C75.0157 1.86275 75.0072 1.84293 74.993 1.83444C74.976 1.82595 74.9561 1.83444 74.9476 1.84859Z" fill="#00A5A3"/>
<path d="M99.3394 15.8557C99.3281 15.8755 99.3338 15.901 99.3536 15.9123C99.3735 15.9237 99.399 15.918 99.4103 15.8982C99.4217 15.8784 99.416 15.8529 99.3961 15.8416C99.3763 15.8303 99.3508 15.8359 99.3394 15.8557Z" fill="#00A5A3"/>
<path d="M101.775 18.443C101.787 18.4231 101.812 18.4146 101.835 18.426C101.857 18.4373 101.863 18.4628 101.852 18.4854C101.84 18.508 101.815 18.5137 101.792 18.5024C101.77 18.4911 101.764 18.4656 101.775 18.443Z" fill="#00A5A3"/>
<path d="M104.032 21.1822C104.044 21.1624 104.072 21.1539 104.092 21.1652C104.112 21.1765 104.12 21.2049 104.109 21.2247C104.098 21.2445 104.069 21.253 104.049 21.2416C104.03 21.2303 104.021 21.202 104.032 21.1822Z" fill="#00A5A3"/>
<path d="M106.108 24.0666C106.119 24.0439 106.148 24.0383 106.17 24.0496C106.193 24.0609 106.199 24.0892 106.187 24.1119C106.176 24.1345 106.148 24.1402 106.125 24.1289C106.102 24.1175 106.097 24.0892 106.108 24.0666Z" fill="#00A5A3"/>
<path d="M107.985 27.0805C107.999 27.0579 108.028 27.0494 108.05 27.0636C108.073 27.0777 108.082 27.106 108.067 27.1287C108.053 27.1513 108.025 27.1598 108.002 27.1456C107.979 27.1315 107.971 27.1032 107.985 27.0805Z" fill="#00A5A3"/>
<path d="M109.664 30.2082C109.65 30.2308 109.658 30.262 109.681 30.2733C109.704 30.2846 109.735 30.2789 109.746 30.2563C109.757 30.2337 109.752 30.2025 109.729 30.1912C109.706 30.1799 109.675 30.1855 109.664 30.2082Z" fill="#00A5A3"/>
<path d="M111.133 33.4438C111.147 33.4212 111.178 33.4127 111.201 33.4268C111.223 33.441 111.232 33.4721 111.218 33.4948C111.204 33.5174 111.172 33.5259 111.15 33.5118C111.127 33.4976 111.118 33.4665 111.133 33.4438Z" fill="#00A5A3"/>
<path d="M112.389 36.7639C112.375 36.7894 112.383 36.8205 112.409 36.8347C112.434 36.8488 112.465 36.8404 112.48 36.8149C112.494 36.7894 112.485 36.7583 112.46 36.7441C112.434 36.73 112.403 36.7385 112.389 36.7639Z" fill="#00A5A3"/>
<path d="M113.424 40.1604C113.41 40.1859 113.418 40.217 113.444 40.2312C113.469 40.2453 113.5 40.2368 113.515 40.2114C113.529 40.1859 113.52 40.1548 113.495 40.1406C113.469 40.1265 113.438 40.1349 113.424 40.1604Z" fill="#00A5A3"/>
<path d="M114.235 43.6155C114.249 43.59 114.283 43.5815 114.309 43.5957C114.334 43.6098 114.343 43.6438 114.328 43.6693C114.314 43.6947 114.28 43.7032 114.255 43.6891C114.229 43.6749 114.221 43.641 114.235 43.6155Z" fill="#00A5A3"/>
<path d="M114.822 47.1175C114.836 47.092 114.87 47.0835 114.896 47.0976C114.921 47.1118 114.93 47.1458 114.915 47.1712C114.901 47.1967 114.867 47.2052 114.842 47.191C114.816 47.1769 114.808 47.1429 114.822 47.1175Z" fill="#00A5A3"/>
<path d="M12.5418 63.8044C12.5674 63.7591 12.6241 63.7449 12.6694 63.7704C12.7148 63.7959 12.729 63.8525 12.7035 63.8978C12.6779 63.943 12.6212 63.9572 12.5759 63.9317C12.5305 63.9062 12.5163 63.8496 12.5418 63.8044Z" fill="#00A5A3"/>
<path d="M11.9379 60.0319C11.9095 60.08 11.9265 60.1394 11.9747 60.1677C12.0229 60.196 12.0825 60.179 12.1108 60.1309C12.1392 60.0828 12.1222 60.0205 12.074 59.9951C12.0258 59.9696 11.9634 59.9837 11.9379 60.0319Z" fill="#00A5A3"/>
<path d="M11.6288 56.225C11.6571 56.1741 11.7224 56.1571 11.7734 56.1854C11.8244 56.2137 11.8414 56.2788 11.8131 56.3298C11.7847 56.3807 11.7195 56.3977 11.6685 56.3694C11.6174 56.3411 11.6004 56.276 11.6288 56.225Z" fill="#00A5A3"/>
<path d="M11.6146 52.4041C11.6458 52.3503 11.7138 52.3305 11.7677 52.3616C11.8216 52.3927 11.8414 52.4607 11.8103 52.5144C11.7791 52.5682 11.711 52.588 11.6571 52.5569C11.6033 52.5258 11.5834 52.4578 11.6146 52.4041Z" fill="#00A5A3"/>
<path d="M11.8982 48.594C11.8641 48.6506 11.884 48.7242 11.9407 48.7553C11.9974 48.7865 12.0711 48.7695 12.1023 48.7129C12.1335 48.6563 12.1165 48.5827 12.0598 48.5515C12.0031 48.5204 11.9294 48.5374 11.8982 48.594Z" fill="#00A5A3"/>
<path d="M12.4766 44.8215C12.5106 44.7621 12.5872 44.7423 12.6468 44.7763C12.7063 44.8102 12.7262 44.8866 12.6921 44.9461C12.6581 45.0055 12.5815 45.0253 12.522 44.9914C12.4624 44.9574 12.4426 44.881 12.4766 44.8215Z" fill="#00A5A3"/>
<path d="M13.35 41.1025C13.3131 41.1647 13.3358 41.2468 13.3982 41.2808C13.4606 41.3147 13.5428 41.2949 13.5768 41.2327C13.6109 41.1704 13.591 41.0883 13.5286 41.0544C13.4662 41.0204 13.384 41.0402 13.35 41.1025Z" fill="#00A5A3"/>
<path d="M14.5097 37.4651C14.5466 37.4 14.6317 37.3773 14.6969 37.4141C14.7621 37.4509 14.7848 37.5358 14.7479 37.6009C14.7111 37.666 14.626 37.6886 14.5608 37.6519C14.4956 37.6151 14.4729 37.5302 14.5097 37.4651Z" fill="#00A5A3"/>
<path d="M15.9502 33.93C15.9899 33.8621 16.0778 33.8366 16.1459 33.8762C16.2139 33.9158 16.2395 34.0036 16.1998 34.0715C16.1601 34.1394 16.0722 34.1649 16.0041 34.1253C15.936 34.0857 15.9105 33.9979 15.9502 33.93Z" fill="#00A5A3"/>
<path d="M17.6629 30.5165C17.7026 30.4458 17.7934 30.4231 17.8643 30.4628C17.9351 30.5024 17.9578 30.5929 17.9181 30.6637C17.8784 30.7345 17.7877 30.7571 17.7168 30.7175C17.6459 30.6779 17.6232 30.5873 17.6629 30.5165Z" fill="#00A5A3"/>
<path d="M19.6308 27.2451C19.6734 27.1743 19.7641 27.1488 19.835 27.1885C19.9059 27.2281 19.9314 27.3215 19.8917 27.3922C19.852 27.463 19.7584 27.4885 19.6875 27.4489C19.6167 27.4092 19.5911 27.3158 19.6308 27.2451Z" fill="#00A5A3"/>
<path d="M21.8426 24.1348C21.8851 24.0612 21.9787 24.0357 22.0524 24.0782C22.1262 24.1206 22.1517 24.214 22.1091 24.2876C22.0666 24.3612 21.973 24.3867 21.8993 24.3442C21.8256 24.3018 21.8001 24.2084 21.8426 24.1348Z" fill="#00A5A3"/>
<path d="M24.2897 21.2023C24.2472 21.2759 24.2727 21.3721 24.3464 21.4145C24.4202 21.457 24.5166 21.4315 24.5591 21.3579C24.6016 21.2843 24.5761 21.1881 24.5024 21.1457C24.4287 21.1032 24.3323 21.1287 24.2897 21.2023Z" fill="#00A5A3"/>
<path d="M26.9608 18.4705C27.0034 18.3941 27.1026 18.3686 27.1792 18.4111C27.2557 18.4535 27.2813 18.5526 27.2387 18.629C27.1962 18.7054 27.097 18.7309 27.0204 18.6884C26.9438 18.646 26.9183 18.5469 26.9608 18.4705Z" fill="#00A5A3"/>
<path d="M29.8361 15.9552C29.8815 15.8788 29.9808 15.8504 30.0573 15.8957C30.1339 15.941 30.1622 16.0401 30.1169 16.1165C30.0715 16.1929 29.9722 16.2212 29.8957 16.1759C29.8191 16.1307 29.7908 16.0316 29.8361 15.9552Z" fill="#00A5A3"/>
<path d="M32.8957 13.6735C32.9411 13.5943 33.0432 13.5688 33.1226 13.6141C33.202 13.6594 33.2275 13.7613 33.1821 13.8405C33.1368 13.9198 33.0347 13.9453 32.9581 13.9C32.8816 13.8547 32.8532 13.7528 32.8986 13.6764L32.8957 13.6735Z" fill="#00A5A3"/>
<path d="M36.1283 11.6357C36.1737 11.5564 36.2786 11.5281 36.358 11.5734C36.4374 11.6187 36.4658 11.7234 36.4204 11.8027C36.375 11.8819 36.2701 11.9102 36.1907 11.8649C36.1113 11.8197 36.083 11.7149 36.1283 11.6357Z" fill="#00A5A3"/>
<path d="M39.5084 9.85539C39.5537 9.77614 39.6586 9.74784 39.738 9.79312C39.8174 9.83841 39.8458 9.94313 39.8004 10.0224C39.7551 10.1016 39.6501 10.1299 39.5707 10.0847C39.4913 10.0394 39.463 9.93747 39.5084 9.85539Z" fill="#00A5A3"/>
<path d="M43.0217 8.34115C42.9763 8.4204 43.0046 8.51947 43.0812 8.56475C43.1578 8.61004 43.2599 8.58173 43.3052 8.50531C43.3506 8.42889 43.3222 8.327 43.2457 8.28172C43.1691 8.23643 43.067 8.26473 43.0217 8.34115Z" fill="#00A5A3"/>
<path d="M46.6399 7.10458C46.6852 7.02817 46.7845 6.99986 46.8611 7.04515C46.9376 7.09043 46.966 7.1895 46.9206 7.26591C46.8752 7.34233 46.776 7.37064 46.6994 7.32535C46.6229 7.28007 46.5945 7.181 46.6399 7.10458Z" fill="#00A5A3"/>
<path d="M50.346 6.15046C50.3035 6.22405 50.329 6.32028 50.4027 6.36274C50.4764 6.40519 50.5728 6.37972 50.6154 6.30613C50.6579 6.23254 50.6324 6.13631 50.5587 6.09386C50.4849 6.0514 50.3885 6.07687 50.346 6.15046Z" fill="#00A5A3"/>
<path d="M54.1514 5.67165C54.2137 5.7226 54.3073 5.7141 54.3584 5.64901C54.4094 5.58674 54.4009 5.49334 54.3357 5.44239C54.2733 5.39144 54.1797 5.39994 54.1287 5.4622C54.0776 5.52447 54.0861 5.61787 54.1514 5.66882V5.67165Z" fill="#00A5A3"/>
<path d="M57.9312 5.11172C57.8915 5.17682 57.917 5.26173 57.9823 5.30136C58.0475 5.34098 58.1325 5.31551 58.1722 5.25041C58.2119 5.18531 58.1864 5.1004 58.1212 5.06078C58.056 5.02115 57.9709 5.04663 57.9312 5.11172Z" fill="#00A5A3"/>
<path d="M61.7593 5.03247C61.7224 5.09474 61.7451 5.17399 61.8075 5.21079C61.8699 5.24758 61.9493 5.22494 61.9861 5.16267C62.023 5.1004 62.0003 5.02115 61.9379 4.98436C61.8755 4.94756 61.7961 4.97021 61.7593 5.03247Z" fill="#00A5A3"/>
<path d="M65.6214 5.41457C65.6781 5.45137 65.7546 5.43722 65.7915 5.38061C65.8284 5.324 65.8142 5.24758 65.7575 5.21079C65.7008 5.17399 65.6242 5.18814 65.5873 5.24475C65.5505 5.30136 65.5647 5.37778 65.6214 5.41457Z" fill="#00A5A3"/>
<path d="M69.3814 5.76526C69.4125 5.71148 69.4834 5.69167 69.5373 5.7228C69.5912 5.75394 69.611 5.8247 69.5798 5.87847C69.5487 5.93225 69.4778 5.95206 69.4239 5.92093C69.37 5.88979 69.3502 5.81904 69.3814 5.76526Z" fill="#00A5A3"/>
<path d="M73.1215 6.56897C73.1527 6.51519 73.2208 6.49538 73.2746 6.52651C73.3285 6.55765 73.3484 6.62558 73.3172 6.67935C73.286 6.73313 73.2179 6.75294 73.164 6.72181C73.1102 6.69067 73.0903 6.62275 73.1215 6.56897Z" fill="#00A5A3"/>
<path d="M76.7851 7.66187C76.7539 7.71565 76.7738 7.78075 76.8248 7.81188C76.8758 7.84301 76.9439 7.8232 76.9751 7.77225C77.0063 7.72131 76.9864 7.65338 76.9354 7.62225C76.8843 7.59111 76.8163 7.61092 76.7851 7.66187Z" fill="#00A5A3"/>
<path d="M80.3551 9.03694C80.3835 8.98599 80.4515 8.96618 80.5026 8.99731C80.5536 9.02845 80.5706 9.09355 80.5423 9.14449C80.5139 9.19544 80.4459 9.21525 80.3948 9.18412C80.3438 9.15581 80.3239 9.08788 80.3551 9.03694Z" fill="#00A5A3"/>
<path d="M83.7947 10.6842C83.7663 10.7408 83.789 10.8059 83.8457 10.8342C83.9024 10.8625 83.9677 10.8399 83.996 10.7833C84.0244 10.7267 84.0017 10.6616 83.945 10.6333C83.8883 10.605 83.8231 10.6276 83.7947 10.6842Z" fill="#00A5A3"/>
<path d="M87.1123 12.5813C87.1435 12.5247 87.2172 12.5077 87.2711 12.5388C87.325 12.57 87.3449 12.6407 87.3137 12.6973C87.2825 12.754 87.2087 12.7709 87.1549 12.7398C87.101 12.7087 87.0811 12.6379 87.1123 12.5813Z" fill="#00A5A3"/>
<path d="M90.2655 14.7321C90.2995 14.6755 90.3733 14.6557 90.43 14.6868C90.4867 14.7179 90.5065 14.7944 90.4754 14.851C90.4442 14.9076 90.3676 14.9274 90.3109 14.8962C90.2542 14.8651 90.2343 14.7887 90.2655 14.7321Z" fill="#00A5A3"/>
<path d="M93.2429 17.1185C93.2769 17.0591 93.3535 17.0392 93.413 17.0732C93.4726 17.1072 93.4924 17.1836 93.4584 17.243C93.4244 17.3025 93.3478 17.3223 93.2883 17.2883C93.2287 17.2543 93.2089 17.1779 93.2429 17.1185Z" fill="#00A5A3"/>
<path d="M96.0246 19.7248C96.0615 19.6626 96.1437 19.6399 96.2061 19.6767C96.2685 19.7135 96.2912 19.7956 96.2543 19.8579C96.2174 19.9201 96.1352 19.9428 96.0728 19.906C96.0104 19.8692 95.9878 19.7871 96.0246 19.7248Z" fill="#00A5A3"/>
<path d="M98.5908 22.5439C98.6305 22.4759 98.7156 22.4533 98.7837 22.4929C98.8517 22.5325 98.8744 22.6174 98.8347 22.6854C98.795 22.7533 98.7099 22.7759 98.6419 22.7363C98.5738 22.6967 98.5511 22.6118 98.5908 22.5439Z" fill="#00A5A3"/>
<path d="M100.93 25.5528C100.973 25.4821 101.063 25.4566 101.134 25.4962C101.205 25.5359 101.231 25.6293 101.188 25.7C101.146 25.7708 101.055 25.7962 100.984 25.7566C100.913 25.717 100.888 25.6236 100.927 25.5528H100.93Z" fill="#00A5A3"/>
<path d="M103.023 28.7371C103.065 28.6607 103.165 28.6352 103.241 28.6777C103.318 28.7201 103.343 28.8192 103.301 28.8956C103.258 28.972 103.159 28.9975 103.082 28.9551C103.006 28.9126 102.98 28.8135 103.023 28.7371Z" fill="#00A5A3"/>
<path d="M104.866 32.0741C104.911 31.9949 105.013 31.9666 105.096 32.0118C105.178 32.0571 105.203 32.159 105.158 32.2411C105.113 32.3232 105.011 32.3487 104.928 32.3034C104.846 32.2581 104.821 32.1562 104.866 32.0741Z" fill="#00A5A3"/>
<path d="M106.443 35.5408C106.394 35.6257 106.423 35.7333 106.508 35.7814C106.593 35.8295 106.701 35.8012 106.749 35.7163C106.797 35.6314 106.769 35.5238 106.684 35.4757C106.599 35.4276 106.491 35.4559 106.443 35.5408Z" fill="#00A5A3"/>
<path d="M107.747 39.1208C107.696 39.2085 107.727 39.3217 107.815 39.3727C107.903 39.4236 108.016 39.3925 108.067 39.3048C108.118 39.217 108.087 39.1038 107.999 39.0529C107.911 39.0019 107.798 39.033 107.747 39.1208Z" fill="#00A5A3"/>
<path d="M108.771 42.7947C108.717 42.8853 108.751 43.0013 108.842 43.0551C108.932 43.1089 109.049 43.0749 109.102 42.9843C109.156 42.8938 109.122 42.7777 109.032 42.7239C108.941 42.6702 108.825 42.7041 108.771 42.7947Z" fill="#00A5A3"/>
<path d="M109.514 46.5367C109.46 46.6301 109.491 46.7462 109.584 46.8C109.678 46.8537 109.794 46.8226 109.848 46.7292C109.902 46.6358 109.871 46.5198 109.777 46.466C109.684 46.4122 109.567 46.4433 109.514 46.5367Z" fill="#00A5A3"/>
<path d="M109.964 50.3238C110.018 50.2304 110.137 50.1992 110.231 50.253C110.325 50.3068 110.356 50.4256 110.302 50.519C110.248 50.6124 110.129 50.6436 110.035 50.5898C109.942 50.536 109.911 50.4172 109.964 50.3238Z" fill="#00A5A3"/>
<path d="M110.118 54.1362C110.171 54.0428 110.293 54.0089 110.387 54.0626C110.48 54.1164 110.515 54.2381 110.461 54.3315C110.407 54.4249 110.285 54.4589 110.191 54.4051C110.098 54.3513 110.064 54.2296 110.118 54.1362Z" fill="#00A5A3"/>
<path d="M18.8737 68.1262C18.9106 68.0611 18.9957 68.0384 19.0609 68.0752C19.1261 68.112 19.1488 68.1969 19.1119 68.262C19.0751 68.3271 18.99 68.3498 18.9248 68.313C18.8596 68.2762 18.8369 68.1913 18.8737 68.1262Z" fill="#00A5A3"/>
<path d="M17.7678 64.2491C17.8104 64.1755 17.904 64.15 17.9805 64.1925C18.0571 64.2349 18.0798 64.3283 18.0372 64.4047C17.9947 64.4812 17.9011 64.5038 17.8274 64.4614C17.7537 64.4189 17.7281 64.3255 17.7707 64.2519L17.7678 64.2491Z" fill="#00A5A3"/>
<path d="M17.0192 60.289C17.0646 60.2097 17.1695 60.1814 17.2489 60.2267C17.3283 60.272 17.3567 60.3767 17.3113 60.456C17.2659 60.5352 17.161 60.5635 17.0816 60.5182C17.0022 60.4729 16.9739 60.3682 17.0192 60.289Z" fill="#00A5A3"/>
<path d="M16.6336 56.2816C16.6846 56.1939 16.7952 56.1656 16.8803 56.2165C16.9654 56.2675 16.9966 56.3779 16.9455 56.4628C16.8945 56.5477 16.7839 56.5788 16.6988 56.5279C16.6138 56.4769 16.5826 56.3665 16.6336 56.2816Z" fill="#00A5A3"/>
<path d="M16.6138 52.2543C16.5599 52.3477 16.5911 52.4637 16.6846 52.5175C16.7782 52.5713 16.8945 52.5402 16.9484 52.4468C17.0022 52.3534 16.971 52.2373 16.8775 52.1835C16.7839 52.1298 16.6676 52.1609 16.6138 52.2543Z" fill="#00A5A3"/>
<path d="M16.9625 48.2434C17.0192 48.1444 17.144 48.1104 17.2433 48.167C17.3425 48.2236 17.3765 48.3482 17.3198 48.4472C17.2631 48.5463 17.1383 48.5803 17.0391 48.5237C16.9398 48.467 16.9058 48.3425 16.9625 48.2434Z" fill="#00A5A3"/>
<path d="M17.6743 44.2835C17.7338 44.1788 17.8671 44.142 17.972 44.2042C18.0769 44.2665 18.1138 44.3967 18.0514 44.5014C17.989 44.6061 17.8586 44.6429 17.7537 44.5807C17.6488 44.5184 17.6119 44.3882 17.6743 44.2835Z" fill="#00A5A3"/>
<path d="M18.749 40.4062C18.6866 40.5166 18.7234 40.6581 18.834 40.7204C18.9446 40.7826 19.0864 40.7458 19.1488 40.6355C19.2112 40.5251 19.1743 40.3836 19.0637 40.3213C18.9531 40.259 18.8113 40.2958 18.749 40.4062Z" fill="#00A5A3"/>
<path d="M20.1724 36.6443C20.2405 36.5282 20.3879 36.4886 20.5042 36.5537C20.6205 36.6216 20.6602 36.7688 20.5949 36.8849C20.5297 37.0009 20.3794 37.0405 20.2632 36.9754C20.1469 36.9103 20.1072 36.7603 20.1724 36.6443Z" fill="#00A5A3"/>
<path d="M21.9333 33.0271C21.8624 33.1488 21.905 33.3016 22.0269 33.3724C22.1488 33.4432 22.302 33.4007 22.3729 33.279C22.4437 33.1573 22.4012 33.0045 22.2793 32.9337C22.1573 32.8629 22.0042 32.9054 21.9333 33.0271Z" fill="#00A5A3"/>
<path d="M24.0118 29.5855C24.0827 29.461 24.2443 29.4185 24.3691 29.4893C24.4939 29.56 24.5364 29.7214 24.4655 29.8459C24.3946 29.9704 24.233 30.0129 24.1082 29.9421C23.9835 29.8714 23.9409 29.71 24.0118 29.5855Z" fill="#00A5A3"/>
<path d="M26.3937 26.345C26.32 26.4752 26.3625 26.6394 26.493 26.713C26.6234 26.7866 26.7879 26.7441 26.8616 26.6139C26.9353 26.4837 26.8928 26.3195 26.7624 26.246C26.6319 26.1724 26.4675 26.2148 26.3937 26.345Z" fill="#00A5A3"/>
<path d="M29.062 23.3364C29.1386 23.2033 29.3087 23.158 29.4392 23.2345C29.5696 23.3109 29.6178 23.4807 29.5412 23.6109C29.4647 23.7411 29.2945 23.7892 29.1641 23.7128C29.0337 23.6364 28.9855 23.4665 29.062 23.3364Z" fill="#00A5A3"/>
<path d="M31.9969 20.5856C32.0734 20.4526 32.2464 20.4044 32.3797 20.4837C32.5129 20.5601 32.5611 20.7328 32.4818 20.8658C32.4024 20.9988 32.2322 21.0469 32.0989 20.9677C31.9657 20.8884 31.9175 20.7186 31.9969 20.5856Z" fill="#00A5A3"/>
<path d="M35.1727 18.1144C35.2521 17.9785 35.4251 17.9332 35.5612 18.0096C35.6973 18.0861 35.7427 18.2615 35.6661 18.3974C35.5896 18.5332 35.4138 18.5785 35.2776 18.5021C35.1415 18.4257 35.0962 18.2502 35.1727 18.1144Z" fill="#00A5A3"/>
<path d="M38.6265 16.3111C38.7484 16.4102 38.9299 16.3932 39.032 16.2686C39.1312 16.1469 39.1142 15.9658 38.9894 15.8639C38.8675 15.7648 38.686 15.7818 38.584 15.9064C38.4847 16.0281 38.5017 16.2092 38.6265 16.3111Z" fill="#00A5A3"/>
<path d="M42.1398 14.0953C42.2192 13.9594 42.3922 13.9113 42.5283 13.9905C42.6644 14.0698 42.7126 14.2424 42.6332 14.3783C42.5538 14.5141 42.3808 14.5623 42.2447 14.483C42.1086 14.4038 42.0604 14.2311 42.1398 14.0953Z" fill="#00A5A3"/>
<path d="M45.9367 12.9348C46.0557 13.031 46.2316 13.0141 46.3308 12.8952C46.4272 12.7763 46.4102 12.6008 46.2911 12.5018C46.172 12.4055 45.9962 12.4225 45.897 12.5414C45.7977 12.6603 45.8176 12.8358 45.9367 12.9348Z" fill="#00A5A3"/>
<path d="M49.7278 11.4068C49.8044 11.2766 49.9689 11.2313 50.1021 11.3077C50.2354 11.3841 50.278 11.5483 50.2014 11.6813C50.1248 11.8144 49.9604 11.8568 49.8271 11.7804C49.6938 11.704 49.6513 11.5398 49.7278 11.4068Z" fill="#00A5A3"/>
<path d="M53.6835 10.5885C53.6126 10.7102 53.6551 10.8687 53.7771 10.9394C53.899 11.0102 54.0578 10.9677 54.1287 10.846C54.1996 10.7243 54.157 10.5658 54.0351 10.4951C53.9132 10.4243 53.7544 10.4667 53.6835 10.5885Z" fill="#00A5A3"/>
<path d="M57.7015 10.1328C57.6363 10.246 57.676 10.3932 57.7894 10.4583C57.9029 10.5234 58.0503 10.4837 58.1155 10.3705C58.1808 10.2573 58.1411 10.1101 58.0276 10.045C57.9142 9.97993 57.7668 10.0196 57.7015 10.1328Z" fill="#00A5A3"/>
<path d="M61.7423 10.0398C61.6799 10.1474 61.7167 10.2832 61.8245 10.3427C61.9323 10.4021 62.0684 10.3682 62.1279 10.2606C62.1875 10.153 62.1534 10.0172 62.0457 9.95775C61.9379 9.89831 61.8018 9.93228 61.7423 10.0398Z" fill="#00A5A3"/>
<path d="M65.7745 10.3139C65.8312 10.2148 65.956 10.1809 66.0552 10.2375C66.1544 10.2941 66.1885 10.4186 66.1318 10.5177C66.0751 10.6168 65.9503 10.6507 65.851 10.5941C65.7518 10.5375 65.7178 10.413 65.7745 10.3139Z" fill="#00A5A3"/>
<path d="M69.7613 10.9507C69.8152 10.8573 69.9343 10.8262 70.0279 10.88C70.1214 10.9338 70.1526 11.0526 70.0988 11.146C70.0449 11.2394 69.9258 11.2706 69.8322 11.2168C69.7386 11.163 69.7075 11.0441 69.7613 10.9507Z" fill="#00A5A3"/>
<path d="M73.6659 11.9468C73.6149 12.0373 73.6461 12.1534 73.7368 12.2043C73.8276 12.2553 73.9438 12.2241 73.9949 12.1336C74.0459 12.043 74.0147 11.9269 73.924 11.876C73.8333 11.8251 73.717 11.8562 73.6659 11.9468Z" fill="#00A5A3"/>
<path d="M77.4685 13.2946C77.4174 13.3824 77.4486 13.4956 77.5365 13.5465C77.6244 13.5975 77.7379 13.5663 77.7889 13.4786C77.8399 13.3908 77.8088 13.2776 77.7208 13.2267C77.6329 13.1757 77.5195 13.2069 77.4685 13.2946Z" fill="#00A5A3"/>
<path d="M81.1174 14.9751C81.1713 14.8845 81.2875 14.8534 81.3783 14.9043C81.469 14.9553 81.5002 15.0741 81.4492 15.1647C81.3981 15.2553 81.279 15.2864 81.1883 15.2355C81.0975 15.1845 81.0664 15.0657 81.1174 14.9751Z" fill="#00A5A3"/>
<path d="M84.6 16.9766C84.6539 16.8803 84.7758 16.8492 84.8722 16.903C84.9686 16.9567 84.9998 17.0784 84.9459 17.1747C84.8921 17.2709 84.7701 17.302 84.6737 17.2483C84.5773 17.1945 84.5461 17.0728 84.6 16.9766Z" fill="#00A5A3"/>
<path d="M87.8893 19.2833C87.946 19.1842 88.0736 19.1503 88.1728 19.2069C88.2721 19.2635 88.3061 19.3908 88.2494 19.4899C88.1927 19.589 88.0651 19.6229 87.9658 19.5663C87.8666 19.5097 87.8326 19.3824 87.8893 19.2833Z" fill="#00A5A3"/>
<path d="M90.9546 21.8787C90.895 21.9835 90.929 22.1165 91.034 22.1759C91.1389 22.2354 91.2722 22.2014 91.3317 22.0967C91.3913 21.9919 91.3572 21.8589 91.2523 21.7995C91.1474 21.74 91.0141 21.774 90.9546 21.8787Z" fill="#00A5A3"/>
<path d="M93.827 25.0455C93.9319 25.1219 94.0794 25.0964 94.156 24.9917C94.2325 24.887 94.207 24.7398 94.1021 24.6634C93.9972 24.587 93.8497 24.6125 93.7732 24.7172C93.6966 24.8219 93.7221 24.9691 93.827 25.0455Z" fill="#00A5A3"/>
<path d="M96.2713 27.8847C96.2231 28.0149 96.2883 28.1621 96.4188 28.2102C96.5492 28.2583 96.6966 28.1932 96.7448 28.063C96.793 27.9328 96.7278 27.7857 96.5974 27.7376C96.467 27.6894 96.3195 27.7545 96.2713 27.8847Z" fill="#00A5A3"/>
<path d="M98.5228 31.1712C98.4491 31.3013 98.4916 31.4655 98.622 31.5419C98.7525 31.6184 98.9169 31.5731 98.9935 31.4429C99.07 31.3127 99.0247 31.1485 98.8942 31.0721C98.7638 30.9985 98.5993 31.041 98.5228 31.1712Z" fill="#00A5A3"/>
<path d="M100.442 34.6889C100.363 34.8276 100.411 35.0031 100.547 35.0823C100.684 35.1616 100.862 35.1134 100.942 34.9776C101.021 34.8417 100.973 34.6634 100.837 34.5842C100.701 34.5049 100.522 34.553 100.442 34.6889Z" fill="#00A5A3"/>
<path d="M102.036 38.3681C101.951 38.5125 102.002 38.6993 102.147 38.7813C102.291 38.8634 102.478 38.8153 102.561 38.671C102.643 38.5266 102.595 38.3398 102.45 38.2577C102.305 38.1756 102.118 38.2238 102.036 38.3681Z" fill="#00A5A3"/>
<path d="M103.343 42.5662C103.471 42.6879 103.675 42.6794 103.797 42.5521C103.919 42.4247 103.91 42.2209 103.783 42.0992C103.655 41.9775 103.451 41.986 103.329 42.1134C103.207 42.2407 103.216 42.4445 103.343 42.5662Z" fill="#00A5A3"/>
<path d="M104.194 46.0836C104.103 46.2421 104.157 46.4431 104.316 46.5336C104.475 46.6242 104.676 46.5704 104.767 46.4119C104.858 46.2534 104.804 46.0525 104.645 45.9619C104.486 45.8713 104.285 45.9251 104.194 46.0836Z" fill="#00A5A3"/>
<path d="M104.77 50.4366C104.883 50.5837 105.096 50.612 105.246 50.4988C105.393 50.3856 105.422 50.1733 105.308 50.0233C105.195 49.8761 104.982 49.8478 104.832 49.9611C104.685 50.0743 104.656 50.2865 104.77 50.4366Z" fill="#00A5A3"/>
<path d="M104.934 54.0768C104.84 54.2381 104.897 54.4476 105.059 54.541C105.22 54.6344 105.43 54.5778 105.524 54.4164C105.617 54.2551 105.561 54.0457 105.399 53.9523C105.237 53.8589 105.028 53.9155 104.934 54.0768Z" fill="#00A5A3"/>
<path d="M104.758 58.0935C104.665 58.2576 104.721 58.4642 104.883 58.5576C105.045 58.651 105.254 58.5944 105.348 58.4331C105.442 58.2718 105.385 58.0623 105.223 57.9689C105.062 57.8755 104.852 57.9321 104.758 58.0935Z" fill="#00A5A3"/>
<path d="M104.222 62.0782C104.132 62.2367 104.185 62.4405 104.344 62.5339C104.503 62.6273 104.707 62.5707 104.801 62.4122C104.894 62.2537 104.838 62.0499 104.679 61.9565C104.52 61.8631 104.316 61.9197 104.222 62.0782Z" fill="#00A5A3"/>
<path d="M103.329 66.0039C103.241 66.1567 103.295 66.352 103.448 66.4398C103.601 66.5275 103.797 66.4766 103.888 66.3237C103.976 66.1709 103.922 65.9756 103.769 65.885C103.616 65.7944 103.42 65.8482 103.329 66.0039Z" fill="#00A5A3"/>
<path d="M24.7264 69.3943C24.7746 69.3123 24.8795 69.284 24.9617 69.3321C25.044 69.3802 25.0723 69.4849 25.0241 69.567C24.9759 69.6491 24.871 69.6774 24.7888 69.6293C24.7065 69.5811 24.6782 69.4764 24.7264 69.3943Z" fill="#00A5A3"/>
<path d="M23.2689 65.3921C23.3256 65.2958 23.4475 65.2619 23.544 65.3185C23.6404 65.3751 23.6744 65.4968 23.6177 65.593C23.561 65.6893 23.439 65.7232 23.3426 65.6666C23.2462 65.61 23.2122 65.4883 23.2689 65.3921Z" fill="#00A5A3"/>
<path d="M22.2538 61.2606C22.3161 61.1502 22.4579 61.1134 22.5657 61.1757C22.6734 61.238 22.7131 61.3795 22.6507 61.487C22.5884 61.5946 22.4466 61.6342 22.3388 61.572C22.2282 61.5097 22.1914 61.3682 22.2538 61.2606Z" fill="#00A5A3"/>
<path d="M21.6923 57.0515C21.7604 56.9326 21.9135 56.8902 22.0354 56.9609C22.1573 57.0317 22.197 57.1817 22.1262 57.3034C22.0553 57.4251 21.905 57.4647 21.783 57.3968C21.6611 57.3289 21.6214 57.176 21.6923 57.0543V57.0515Z" fill="#00A5A3"/>
<path d="M21.5874 52.806C21.5137 52.9362 21.5562 53.1003 21.6866 53.1768C21.8171 53.2532 21.9815 53.2079 22.0581 53.0777C22.1347 52.9475 22.0893 52.7833 21.9589 52.7069C21.8284 52.6305 21.6639 52.6758 21.5874 52.806Z" fill="#00A5A3"/>
<path d="M21.9447 48.5774C21.8653 48.7161 21.9135 48.8944 22.0524 48.9765C22.1914 49.0586 22.3729 49.0076 22.4522 48.869C22.5316 48.7303 22.4834 48.5491 22.3445 48.4699C22.2056 48.3906 22.0269 48.4387 21.9447 48.5774Z" fill="#00A5A3"/>
<path d="M22.7585 44.414C22.8436 44.264 23.0364 44.213 23.1867 44.2979C23.337 44.3828 23.388 44.5753 23.3029 44.7253C23.2179 44.8753 23.025 44.9263 22.8748 44.8414C22.7245 44.7564 22.6734 44.564 22.7585 44.414Z" fill="#00A5A3"/>
<path d="M24.0203 40.3666C24.1139 40.2052 24.3181 40.1515 24.4769 40.2449C24.6357 40.3383 24.6924 40.5421 24.5988 40.7006C24.5052 40.8591 24.3011 40.9157 24.1423 40.8223C23.9806 40.7289 23.9268 40.5251 24.0203 40.3666Z" fill="#00A5A3"/>
<path d="M25.716 36.4836C25.8124 36.3138 26.0308 36.2572 26.2009 36.3534C26.371 36.4496 26.4278 36.6676 26.3313 36.8374C26.2349 37.0072 26.0166 37.0638 25.8465 36.9676C25.6763 36.8714 25.6196 36.6534 25.716 36.4864V36.4836Z" fill="#00A5A3"/>
<path d="M27.82 32.8039C27.9221 32.6284 28.1461 32.5661 28.3248 32.668C28.5006 32.7699 28.563 32.9935 28.4609 33.169C28.3588 33.3445 28.1348 33.4067 27.959 33.3049C27.7832 33.203 27.7208 32.9794 27.8229 32.8011L27.82 32.8039Z" fill="#00A5A3"/>
<path d="M30.304 29.3739C30.4089 29.1899 30.6443 29.1277 30.8258 29.2324C31.0072 29.3371 31.0725 29.572 30.9675 29.7532C30.8626 29.9343 30.6273 29.9994 30.4458 29.8947C30.2643 29.79 30.1991 29.555 30.304 29.3739Z" fill="#00A5A3"/>
<path d="M33.151 26.2375C33.2587 26.0507 33.4997 25.9856 33.6869 26.0931C33.874 26.2007 33.9392 26.4413 33.8315 26.6281C33.7237 26.8149 33.4827 26.88 33.2956 26.7724C33.1084 26.6648 33.0432 26.4243 33.151 26.2375Z" fill="#00A5A3"/>
<path d="M36.2729 23.5773C36.2446 23.7952 36.3977 23.9962 36.616 24.0245C36.8344 24.0528 37.0357 23.9 37.0641 23.682C37.0924 23.4641 36.9393 23.2631 36.721 23.2348C36.5026 23.2065 36.3013 23.3594 36.2729 23.5773Z" fill="#00A5A3"/>
<path d="M39.7862 20.9841C39.6757 21.1765 39.7409 21.4228 39.9337 21.536C40.1265 21.6492 40.3732 21.5813 40.4866 21.3888C40.6001 21.1963 40.532 20.9473 40.3392 20.8369C40.1464 20.7265 39.8968 20.7916 39.7862 20.9841Z" fill="#00A5A3"/>
<path d="M43.4442 19.0828C43.4158 19.3064 43.5718 19.5102 43.7958 19.5385C44.0198 19.5668 44.224 19.4111 44.2523 19.1875C44.2807 18.9639 44.1247 18.7601 43.9007 18.7318C43.6767 18.7035 43.4725 18.8592 43.4442 19.0828Z" fill="#00A5A3"/>
<path d="M47.414 17.2936C47.3034 17.486 47.3686 17.7294 47.5614 17.8398C47.7543 17.9502 47.9981 17.8851 48.1087 17.6926C48.2193 17.5002 48.1541 17.2568 47.9613 17.1464C47.7684 17.036 47.5246 17.1011 47.414 17.2936Z" fill="#00A5A3"/>
<path d="M51.4944 16.0935C51.5993 15.9095 51.8347 15.8472 52.0162 15.952C52.1976 16.0567 52.2629 16.2916 52.1579 16.4728C52.053 16.6539 51.8177 16.719 51.6362 16.6143C51.4547 16.5095 51.3895 16.2746 51.4944 16.0935Z" fill="#00A5A3"/>
<path d="M55.6911 15.341C55.7875 15.1712 56.0059 15.1146 56.1732 15.2108C56.3405 15.3071 56.4 15.525 56.3036 15.692C56.2072 15.859 55.9888 15.9184 55.8215 15.8222C55.6542 15.7259 55.5947 15.508 55.6911 15.341Z" fill="#00A5A3"/>
<path d="M59.9473 15.0406C59.8566 15.1963 59.9105 15.3944 60.0664 15.485C60.2224 15.5755 60.4209 15.5218 60.5116 15.3661C60.6024 15.2104 60.5485 15.0123 60.3925 14.9217C60.2366 14.8311 60.0381 14.8849 59.9473 15.0406Z" fill="#00A5A3"/>
<path d="M64.2121 15.1963C64.1298 15.3378 64.178 15.5189 64.3227 15.601C64.4673 15.6831 64.6459 15.635 64.7281 15.4906C64.8104 15.3491 64.7622 15.168 64.6176 15.0859C64.4729 15.0038 64.2943 15.0519 64.2121 15.1963Z" fill="#00A5A3"/>
<path d="M68.4314 15.813C68.3549 15.9432 68.4002 16.1102 68.5307 16.1866C68.6611 16.2631 68.8284 16.2178 68.905 16.0876C68.9815 15.9574 68.9362 15.7904 68.8057 15.714C68.6753 15.6376 68.508 15.6828 68.4314 15.813Z" fill="#00A5A3"/>
<path d="M72.5516 16.8747C72.6224 16.7501 72.7841 16.7077 72.9088 16.7784C73.0336 16.8492 73.0761 17.0105 73.0052 17.1351C72.9344 17.2596 72.7727 17.3049 72.648 17.2313C72.5232 17.1605 72.4807 16.9992 72.5516 16.8747Z" fill="#00A5A3"/>
<path d="M76.5214 18.3716C76.5923 18.2471 76.7539 18.2046 76.8787 18.2754C77.0034 18.3462 77.046 18.5075 76.9751 18.632C76.9042 18.7566 76.7426 18.799 76.6178 18.7283C76.493 18.6575 76.4505 18.4962 76.5214 18.3716Z" fill="#00A5A3"/>
<path d="M80.2984 20.2796C80.2247 20.4098 80.2672 20.5739 80.3976 20.6475C80.5281 20.7211 80.6925 20.6787 80.7663 20.5485C80.84 20.4183 80.7975 20.2541 80.667 20.1805C80.5366 20.1069 80.3721 20.1494 80.2984 20.2796Z" fill="#00A5A3"/>
<path d="M83.8429 22.5783C83.7635 22.7141 83.8117 22.8896 83.9478 22.966C84.0839 23.0424 84.2597 22.9972 84.3363 22.8613C84.4129 22.7254 84.3675 22.55 84.2314 22.4735C84.0953 22.3971 83.9195 22.4424 83.8429 22.5783Z" fill="#00A5A3"/>
<path d="M87.0925 25.2889C87.0329 25.4474 87.1123 25.6228 87.2711 25.6823C87.4299 25.7417 87.6057 25.6625 87.6653 25.504C87.7248 25.3455 87.6454 25.17 87.4866 25.1106C87.3278 25.0511 87.152 25.1304 87.0925 25.2889Z" fill="#00A5A3"/>
<path d="M90.067 28.2438C89.9735 28.4052 90.0302 28.609 90.189 28.6995C90.3478 28.7901 90.5548 28.7363 90.6483 28.5778C90.7419 28.4193 90.6852 28.2127 90.5264 28.1193C90.3648 28.0259 90.1606 28.0825 90.0699 28.2438H90.067Z" fill="#00A5A3"/>
<path d="M92.673 31.5533C92.5737 31.7288 92.6332 31.9495 92.8062 32.0514C92.9792 32.1533 93.2032 32.0911 93.3053 31.9184C93.4045 31.7429 93.345 31.5222 93.172 31.4203C92.999 31.3184 92.775 31.3806 92.673 31.5533Z" fill="#00A5A3"/>
<path d="M94.9017 35.1248C94.794 35.3144 94.8592 35.555 95.0463 35.6625C95.2335 35.7701 95.4773 35.705 95.5851 35.5182C95.6928 35.3286 95.6276 35.088 95.4405 34.9804C95.2533 34.8729 95.0095 34.938 94.9017 35.1248Z" fill="#00A5A3"/>
<path d="M96.7307 38.9235C96.6144 39.1244 96.6853 39.382 96.8866 39.498C97.088 39.6141 97.346 39.5462 97.4623 39.3424C97.5785 39.1386 97.5105 38.8839 97.3063 38.7678C97.1021 38.6518 96.8469 38.7225 96.7307 38.9235Z" fill="#00A5A3"/>
<path d="M98.1372 42.8944C98.0124 43.1095 98.0861 43.3841 98.3016 43.5058C98.5171 43.6275 98.7922 43.5567 98.9141 43.3416C99.036 43.1265 98.9651 42.8519 98.7496 42.7302C98.5341 42.6085 98.2591 42.6793 98.1372 42.8944Z" fill="#00A5A3"/>
<path d="M99.1126 47.0037C98.985 47.2273 99.0615 47.5132 99.2855 47.6406C99.5096 47.7679 99.796 47.6915 99.9236 47.4679C100.051 47.2443 99.9746 46.9585 99.7506 46.8311C99.5266 46.7037 99.2402 46.7802 99.1126 47.0037Z" fill="#00A5A3"/>
<path d="M99.6457 51.1981C99.5124 51.4273 99.5918 51.7189 99.8215 51.8519C100.051 51.9849 100.343 51.9057 100.476 51.6764C100.61 51.4471 100.53 51.1556 100.301 51.0226C100.071 50.8896 99.7789 50.9688 99.6457 51.1981Z" fill="#00A5A3"/>
<path d="M99.6627 55.6848C99.6712 55.9508 99.8924 56.1575 100.159 56.149C100.425 56.1405 100.632 55.9197 100.627 55.6536C100.618 55.3876 100.397 55.181 100.131 55.1866C99.864 55.1951 99.657 55.4159 99.6627 55.6819V55.6848Z" fill="#00A5A3"/>
<path d="M99.3593 59.6529C99.2288 59.8793 99.3054 60.1708 99.5351 60.301C99.7648 60.4312 100.054 60.3548 100.184 60.1255C100.315 59.8963 100.238 59.6076 100.009 59.4774C99.779 59.3472 99.4897 59.4236 99.3593 59.6529Z" fill="#00A5A3"/>
<path d="M98.6419 64.3873C98.8347 64.5515 99.1239 64.5317 99.2884 64.3392C99.4529 64.1468 99.433 63.8581 99.2402 63.6939C99.0474 63.5297 98.7581 63.5495 98.5937 63.742C98.4292 63.9345 98.4491 64.2232 98.6419 64.3873Z" fill="#00A5A3"/>
<path d="M97.3233 68.3389C97.4651 68.5229 97.7317 68.5597 97.9188 68.4154C98.1031 68.2738 98.14 68.0078 97.9954 67.821C97.8536 67.637 97.587 67.6002 97.3999 67.7446C97.2156 67.8861 97.1787 68.1521 97.3233 68.3389Z" fill="#00A5A3"/>
<path d="M29.2832 67.2667C29.3456 67.1591 29.4845 67.1223 29.5923 67.1846C29.7 67.2469 29.7369 67.3856 29.6745 67.4931C29.6121 67.6007 29.4732 67.6375 29.3654 67.5752C29.2577 67.5129 29.2208 67.3742 29.2832 67.2667Z" fill="#00A5A3"/>
<path d="M27.803 63.0259C27.8796 62.8957 28.044 62.8504 28.1773 62.9269C28.3106 63.0033 28.3531 63.1674 28.2766 63.3005C28.2 63.4335 28.0355 63.476 27.9051 63.3995C27.7747 63.3231 27.7293 63.159 27.8059 63.0259H27.803Z" fill="#00A5A3"/>
<path d="M26.8956 58.6426C26.9807 58.4954 27.1707 58.4445 27.3181 58.5294C27.4656 58.6143 27.5166 58.8039 27.4316 58.9511C27.3465 59.0983 27.1565 59.1492 27.009 59.0643C26.8616 58.9794 26.8106 58.7898 26.8956 58.6426Z" fill="#00A5A3"/>
<path d="M26.5639 54.1783C26.6574 54.0142 26.8673 53.9576 27.0317 54.0538C27.1962 54.15 27.2529 54.3567 27.1565 54.5208C27.0601 54.685 26.8531 54.7416 26.6886 54.6453C26.5242 54.5491 26.4675 54.3425 26.5639 54.1783Z" fill="#00A5A3"/>
<path d="M26.8191 49.7181C26.9211 49.5398 27.1508 49.4775 27.3323 49.5794C27.511 49.6813 27.5733 49.9105 27.4713 50.0917C27.3692 50.2728 27.1395 50.3322 26.958 50.2304C26.7765 50.1285 26.717 49.8992 26.8191 49.7181Z" fill="#00A5A3"/>
<path d="M27.6556 45.331C27.769 45.1357 28.0185 45.0678 28.2113 45.181C28.407 45.2942 28.475 45.5433 28.3616 45.7358C28.2482 45.9282 27.9987 45.999 27.8058 45.8858C27.613 45.7725 27.5421 45.5235 27.6556 45.3282V45.331Z" fill="#00A5A3"/>
<path d="M29.0592 41.0971C28.9373 41.3066 29.011 41.5783 29.2208 41.6971C29.4307 41.8188 29.7029 41.7453 29.822 41.5358C29.9411 41.3264 29.8702 41.0575 29.6603 40.9358C29.4505 40.8141 29.1783 40.8877 29.0592 41.0971Z" fill="#00A5A3"/>
<path d="M30.9477 37.2585C30.9137 37.5133 31.0951 37.7482 31.3503 37.7822C31.6056 37.8161 31.8409 37.635 31.8749 37.3802C31.909 37.1255 31.7275 36.8906 31.4723 36.8566C31.2171 36.8227 30.9817 37.0038 30.9477 37.2585Z" fill="#00A5A3"/>
<path d="M33.46 33.364C33.3239 33.5989 33.4062 33.8961 33.6415 34.0319C33.8769 34.1678 34.1746 34.0857 34.3107 33.8508C34.4468 33.6159 34.3646 33.3187 34.1292 33.1828C33.8939 33.047 33.5961 33.1291 33.46 33.364Z" fill="#00A5A3"/>
<path d="M36.3807 29.999C36.2418 30.2424 36.324 30.5509 36.5678 30.6896C36.8117 30.8283 37.1208 30.7462 37.2597 30.5028C37.3987 30.2594 37.3164 29.9509 37.0726 29.8122C36.8287 29.6735 36.5196 29.7556 36.3807 29.999Z" fill="#00A5A3"/>
<path d="M39.8741 27.726C40.1067 27.8901 40.4271 27.8392 40.5944 27.6071C40.7617 27.375 40.7078 27.0552 40.4753 26.8882C40.2428 26.7212 39.9224 26.775 39.7551 27.0071C39.5877 27.2391 39.6416 27.559 39.8741 27.726Z" fill="#00A5A3"/>
<path d="M43.5803 25.2549C43.8156 25.4247 44.1446 25.3681 44.3147 25.1331C44.4848 24.8982 44.4281 24.5699 44.1928 24.4029C43.9574 24.2331 43.6285 24.2897 43.4583 24.5246C43.2882 24.7595 43.3449 25.0879 43.5803 25.2577V25.2549Z" fill="#00A5A3"/>
<path d="M47.363 22.7932C47.3261 23.0791 47.5274 23.3423 47.8138 23.3791C48.1002 23.4159 48.3639 23.215 48.4008 22.9291C48.4376 22.6432 48.2363 22.38 47.9499 22.3432C47.6635 22.3064 47.3998 22.5074 47.363 22.7932Z" fill="#00A5A3"/>
<path d="M51.6362 21.2472C51.537 21.5048 51.6674 21.7963 51.9283 21.8925C52.1863 21.9916 52.4784 21.8586 52.5748 21.601C52.674 21.3435 52.5408 21.0519 52.2827 20.9557C52.0247 20.8566 51.7326 20.9897 51.6362 21.2472Z" fill="#00A5A3"/>
<path d="M56.193 20.9027C56.3887 21.0612 56.6779 21.0329 56.8395 20.8376C56.9983 20.6423 56.97 20.3536 56.7743 20.1923C56.5786 20.0338 56.2894 20.0621 56.1278 20.2574C55.969 20.4527 55.9973 20.7414 56.193 20.9027Z" fill="#00A5A3"/>
<path d="M60.5768 20.0386C60.6903 19.8405 60.9455 19.7726 61.144 19.8858C61.3424 19.999 61.4105 20.2537 61.2971 20.4519C61.1837 20.65 60.9284 20.7179 60.73 20.6047C60.5315 20.4915 60.4634 20.2368 60.5768 20.0386Z" fill="#00A5A3"/>
<path d="M65.0684 20.3423C64.9663 20.5206 65.0259 20.7442 65.2045 20.8489C65.3832 20.9536 65.61 20.8885 65.7121 20.713C65.8142 20.5376 65.7518 20.3111 65.576 20.2092C65.4002 20.1073 65.1733 20.1696 65.0713 20.3451L65.0684 20.3423Z" fill="#00A5A3"/>
<path d="M69.4721 21.2193C69.5657 21.0551 69.7755 20.9985 69.94 21.0947C70.1044 21.1909 70.1611 21.3976 70.0647 21.5617C69.9712 21.7259 69.7613 21.7825 69.5969 21.6863C69.4324 21.59 69.3757 21.3834 69.4721 21.2193Z" fill="#00A5A3"/>
<path d="M73.7056 22.6518C73.7992 22.4904 74.0034 22.4367 74.165 22.5272C74.3266 22.6178 74.3805 22.8244 74.2898 22.9857C74.199 23.1471 73.992 23.2009 73.8304 23.1103C73.6688 23.0197 73.6149 22.8131 73.7056 22.6518Z" fill="#00A5A3"/>
<path d="M77.6982 24.6128C77.6018 24.7798 77.6585 24.9949 77.8258 25.0912C77.9931 25.1874 78.2057 25.1308 78.3022 24.9638C78.3986 24.7968 78.3418 24.5817 78.1745 24.4855C78.0072 24.3892 77.7917 24.4459 77.6953 24.6128H77.6982Z" fill="#00A5A3"/>
<path d="M81.393 27.0672C81.2909 27.2455 81.3504 27.4748 81.5319 27.5766C81.7134 27.6785 81.9402 27.6191 82.0423 27.438C82.1444 27.2568 82.0848 27.0304 81.9034 26.9285C81.7219 26.8266 81.495 26.886 81.393 27.0672Z" fill="#00A5A3"/>
<path d="M84.7248 29.9792C84.6113 30.1745 84.6794 30.4264 84.8751 30.5396C85.0707 30.6528 85.3231 30.5849 85.4365 30.3896C85.5499 30.1943 85.4819 29.9424 85.2862 29.8292C85.0906 29.716 84.8382 29.7839 84.7248 29.9792Z" fill="#00A5A3"/>
<path d="M87.6313 33.2988C87.5065 33.5167 87.5802 33.7969 87.7986 33.9215C88.0169 34.046 88.2976 33.9724 88.4224 33.7545C88.5471 33.5365 88.4734 33.2563 88.2551 33.1318C88.0368 33.0073 87.756 33.0808 87.6313 33.2988Z" fill="#00A5A3"/>
<path d="M90.0727 36.9789C89.9338 37.2195 90.016 37.528 90.257 37.6667C90.498 37.8054 90.8071 37.7233 90.9461 37.4827C91.085 37.2421 91.0028 36.9336 90.7617 36.795C90.5207 36.6563 90.2116 36.7383 90.0727 36.9789Z" fill="#00A5A3"/>
<path d="M92.0094 40.9499C91.8563 41.2131 91.947 41.5499 92.2136 41.7028C92.4801 41.8556 92.8147 41.765 92.9678 41.499C93.121 41.2358 93.0302 40.8989 92.7637 40.7461C92.4971 40.5933 92.1625 40.6838 92.0094 40.9499Z" fill="#00A5A3"/>
<path d="M93.5208 45.8688C93.759 46.0924 94.1304 46.0811 94.3545 45.8433C94.5785 45.6056 94.5643 45.2348 94.3289 45.0112C94.0907 44.7876 93.7193 44.8017 93.4953 45.0367C93.2713 45.2744 93.2854 45.6452 93.5208 45.8688Z" fill="#00A5A3"/>
<path d="M94.2751 49.5029C94.1049 49.7945 94.207 50.1709 94.5019 50.3379C94.794 50.5077 95.1711 50.4058 95.3384 50.1143C95.5057 49.8228 95.4065 49.4463 95.1144 49.2794C94.8223 49.1124 94.4452 49.2114 94.2779 49.5029H94.2751Z" fill="#00A5A3"/>
<path d="M94.5643 54.5495C94.7288 54.8523 95.1059 54.9627 95.4065 54.8014C95.7099 54.64 95.8205 54.2608 95.6588 53.9608C95.4972 53.6579 95.1172 53.5475 94.8167 53.7089C94.5133 53.873 94.4027 54.2495 94.5643 54.5495Z" fill="#00A5A3"/>
<path d="M94.2921 58.3926C94.1219 58.687 94.224 59.0634 94.5189 59.2332C94.8138 59.4031 95.191 59.3012 95.3611 59.0068C95.5312 58.7124 95.4291 58.336 95.1342 58.1662C94.8393 57.9964 94.4622 58.0983 94.2921 58.3926Z" fill="#00A5A3"/>
<path d="M93.4499 62.7777C93.2883 63.0607 93.3847 63.4202 93.6654 63.5815C93.9461 63.7429 94.3091 63.6466 94.4707 63.3664C94.6323 63.0834 94.5359 62.7239 94.2552 62.5626C93.9745 62.4013 93.6115 62.4975 93.4499 62.7777Z" fill="#00A5A3"/>
<path d="M92.0661 67.0226C91.9187 67.2773 92.0066 67.6056 92.2618 67.7528C92.517 67.9 92.8459 67.8122 92.9934 67.5575C93.1408 67.3028 93.0529 66.9744 92.7977 66.8273C92.5425 66.6801 92.2136 66.7678 92.0661 67.0226Z" fill="#00A5A3"/>
<path d="M34.03 65.5737C34.1037 65.4435 34.271 65.3982 34.4014 65.4746C34.5319 65.551 34.5773 65.7152 34.5007 65.8454C34.4241 65.9756 34.2597 66.0209 34.1292 65.9445C33.9988 65.868 33.9534 65.7039 34.03 65.5737Z" fill="#00A5A3"/>
<path d="M32.4818 61.1131C32.5753 60.9489 32.7852 60.8923 32.9496 60.9885C33.1141 61.0819 33.1708 61.2914 33.0744 61.4555C32.978 61.6197 32.771 61.6763 32.6065 61.5801C32.4421 61.4867 32.3853 61.2772 32.4818 61.1131Z" fill="#00A5A3"/>
<path d="M31.6793 56.4795C31.5715 56.6691 31.6367 56.9097 31.8239 57.0172C32.0139 57.1248 32.2549 57.0597 32.3627 56.8729C32.4704 56.6861 32.4052 56.4427 32.218 56.3351C32.0309 56.2276 31.787 56.2927 31.6793 56.4795Z" fill="#00A5A3"/>
<path d="M31.6254 51.7873C31.7473 51.5751 32.0195 51.5015 32.2322 51.6232C32.4449 51.7449 32.5186 52.0166 32.3967 52.2289C32.2748 52.4411 32.0025 52.5147 31.7899 52.393C31.5772 52.2713 31.5035 51.9996 31.6254 51.7873Z" fill="#00A5A3"/>
<path d="M32.3258 47.154C32.4619 46.9191 32.7625 46.837 33.0007 46.9729C33.236 47.1087 33.3182 47.4116 33.1821 47.6465C33.046 47.8814 32.7426 47.9635 32.5073 47.8276C32.2719 47.6918 32.1897 47.3918 32.3258 47.154Z" fill="#00A5A3"/>
<path d="M33.8542 43.3607C34.0725 43.5673 34.4185 43.556 34.6226 43.338C34.8296 43.1201 34.8183 42.7748 34.5999 42.571C34.3816 42.3644 34.0357 42.3757 33.8315 42.5936C33.6245 42.8116 33.6358 43.1569 33.8542 43.3607Z" fill="#00A5A3"/>
<path d="M35.9015 38.5467C35.7427 38.824 35.8363 39.1807 36.1141 39.3392C36.392 39.4977 36.7493 39.4043 36.9081 39.1269C37.0669 38.8495 36.9733 38.4957 36.6954 38.3344C36.4176 38.1731 36.0631 38.2693 35.9015 38.5467Z" fill="#00A5A3"/>
<path d="M38.6719 34.7911C38.5017 35.0854 38.6038 35.4618 38.8987 35.6288C39.1936 35.7958 39.5707 35.6968 39.738 35.4024C39.9082 35.1081 39.8061 34.7316 39.5112 34.5646C39.2163 34.3948 38.8392 34.4967 38.6719 34.7911Z" fill="#00A5A3"/>
<path d="M42.171 32.3457C42.4404 32.5665 42.8374 32.524 43.0585 32.2551C43.2797 31.9863 43.2372 31.59 42.9678 31.3692C42.6984 31.1485 42.3014 31.1909 42.0802 31.4598C41.8591 31.7287 41.9016 32.125 42.171 32.3457Z" fill="#00A5A3"/>
<path d="M45.7779 29.1216C45.7325 29.4726 45.9792 29.7952 46.3336 29.8433C46.6852 29.8886 47.0085 29.6395 47.0567 29.2886C47.1021 28.9376 46.8526 28.615 46.5009 28.5668C46.1493 28.5216 45.8261 28.7678 45.7779 29.1216Z" fill="#00A5A3"/>
<path d="M50.088 26.8795C49.9122 27.1852 50.0171 27.5758 50.3233 27.7513C50.6296 27.9268 51.0209 27.822 51.1967 27.5164C51.3725 27.2107 51.2676 26.8201 50.9613 26.6446C50.6551 26.4691 50.2638 26.5738 50.088 26.8795Z" fill="#00A5A3"/>
<path d="M54.6192 25.5978C54.4548 25.8808 54.554 26.2431 54.8376 26.4045C55.1211 26.5658 55.4841 26.4696 55.6457 26.1865C55.8102 25.9035 55.7109 25.5412 55.4274 25.3799C55.1438 25.2185 54.7809 25.3148 54.6192 25.5978Z" fill="#00A5A3"/>
<path d="M59.4426 25.7277C59.6666 25.9116 59.9984 25.8777 60.1798 25.6512C60.3642 25.4276 60.3301 25.0965 60.1033 24.9153C59.8793 24.7314 59.5475 24.7653 59.366 24.9918C59.1817 25.2154 59.2157 25.5465 59.4426 25.7277Z" fill="#00A5A3"/>
<path d="M64.0533 25.2727C64.178 25.0548 64.4588 24.9783 64.6771 25.1057C64.8954 25.2331 64.972 25.5104 64.8444 25.7284C64.7168 25.9463 64.4389 26.0227 64.2206 25.8954C64.0022 25.768 63.9257 25.4906 64.0533 25.2727Z" fill="#00A5A3"/>
<path d="M68.6696 26.2205C68.7831 26.0224 69.0383 25.9516 69.2396 26.0676C69.4409 26.1837 69.509 26.4356 69.3927 26.6365C69.2793 26.8347 69.0241 26.9026 68.8227 26.7894C68.6214 26.6762 68.5534 26.4214 68.6696 26.2205Z" fill="#00A5A3"/>
<path d="M73.0449 27.8734C73.1612 27.6725 73.4164 27.6045 73.6149 27.7206C73.8134 27.8366 73.8843 28.0913 73.768 28.2895C73.6518 28.4904 73.3966 28.5584 73.1981 28.4423C72.9996 28.3263 72.9287 28.0715 73.0449 27.8734Z" fill="#00A5A3"/>
<path d="M77.0743 30.1886C76.9524 30.4009 77.0261 30.6726 77.2388 30.7943C77.4515 30.916 77.7237 30.8424 77.8456 30.6302C77.9675 30.4179 77.8938 30.1462 77.6811 30.0245C77.4685 29.9028 77.1963 29.9764 77.0743 30.1886Z" fill="#00A5A3"/>
<path d="M80.6614 33.1096C80.5252 33.3473 80.6075 33.6473 80.8428 33.786C81.081 33.9219 81.3816 33.8398 81.5205 33.6049C81.6595 33.37 81.5744 33.0671 81.3391 32.9284C81.1037 32.7897 80.8003 32.8746 80.6614 33.1096Z" fill="#00A5A3"/>
<path d="M83.7068 36.5623C83.5508 36.8312 83.6444 37.1765 83.9138 37.3321C84.1832 37.4878 84.5291 37.3944 84.6851 37.1255C84.841 36.8566 84.7475 36.5113 84.4781 36.3557C84.2087 36.2 83.8627 36.2934 83.7068 36.5623Z" fill="#00A5A3"/>
<path d="M86.2588 41.2496C86.514 41.4902 86.9167 41.4761 87.1577 41.2213C87.3987 40.9666 87.3846 40.5647 87.1293 40.3241C86.8741 40.0835 86.4715 40.0977 86.2305 40.3524C85.9894 40.6072 86.0036 41.0091 86.2588 41.2496Z" fill="#00A5A3"/>
<path d="M87.9261 44.7314C87.7333 45.0654 87.8496 45.4956 88.1842 45.6881C88.5188 45.8806 88.9498 45.7645 89.1426 45.4305C89.3354 45.0965 89.2192 44.6663 88.8846 44.4739C88.55 44.2814 88.119 44.3974 87.9261 44.7314Z" fill="#00A5A3"/>
<path d="M89.015 49.2426C88.8109 49.5992 88.9328 50.052 89.2901 50.2587C89.6474 50.4624 90.1011 50.3407 90.3081 49.9841C90.5122 49.6275 90.3903 49.1746 90.033 48.968C89.6757 48.7642 89.222 48.8859 89.015 49.2426Z" fill="#00A5A3"/>
<path d="M89.3865 53.8847C89.1767 54.2499 89.3014 54.714 89.6672 54.9235C90.033 55.1329 90.4981 55.0084 90.7079 54.6433C90.9177 54.2781 90.7929 53.814 90.4272 53.6045C90.0614 53.3951 89.5963 53.5196 89.3865 53.8847Z" fill="#00A5A3"/>
<path d="M89.0292 58.5431C88.8222 58.9025 88.947 59.3611 89.3071 59.5677C89.6672 59.7743 90.1266 59.6498 90.3336 59.2903C90.5406 58.9308 90.4158 58.4723 90.0557 58.2657C89.6956 58.0591 89.2362 58.1836 89.0292 58.5431Z" fill="#00A5A3"/>
<path d="M179.57 114.505C176.232 114.505 172.265 113.11 172.265 106.45V97.2259C172.265 93.8069 170.462 91.8709 167.26 91.8709C164.059 91.8709 161.805 94.121 161.805 97.4948V114.279H153.644V84.8941H161.805V87.1442C163.608 85.3441 166.268 84.3082 169.288 84.3082C176.142 84.3082 180.423 88.899 180.423 96.2325V104.961C180.423 107.076 180.783 107.076 181.461 107.076C181.73 107.076 182.003 107.076 182.227 106.985L183.219 106.804V113.959L182.632 114.14C181.776 114.364 180.783 114.5 179.567 114.5L179.57 114.505Z" fill="#00A5A3"/>
<path d="M147.111 88.4939C144.045 85.5248 140.257 84.0389 135.839 84.0389C131.421 84.0389 127.633 85.5248 124.568 88.4939C121.502 91.4629 119.923 95.199 119.923 99.5181C119.923 103.837 121.5 107.573 124.568 110.542C127.633 113.511 131.421 114.997 135.839 114.997C140.257 114.997 144.045 113.511 147.111 110.542C150.176 107.573 151.755 103.882 151.755 99.5181C151.755 95.1537 150.179 91.4629 147.111 88.4939ZM141.337 105.19C139.849 106.676 138.045 107.44 135.836 107.44C133.627 107.44 131.779 106.721 130.29 105.235C128.801 103.662 128.081 101.816 128.081 99.5662C128.081 97.3161 128.801 95.516 130.29 93.9847C131.779 92.4535 133.582 91.6893 135.836 91.6893C138.091 91.6893 139.849 92.4535 141.337 93.9847C142.826 95.4707 143.592 97.3161 143.592 99.5662C143.592 101.816 142.871 103.662 141.337 105.19Z" fill="#00A5A3"/>
<path d="M109.375 115.001C104.911 115.001 101.123 113.515 98.1031 110.591C95.0832 107.667 93.5038 103.931 93.5038 99.476C93.5038 95.0211 95.0378 91.3756 98.1031 88.4518C101.168 85.4828 104.957 83.9969 109.375 83.9969C113.792 83.9969 117.941 85.7064 121.052 89.0377L121.593 89.6236L116.41 95.0239L115.823 94.3927C114.155 92.5926 111.81 91.602 109.375 91.602C107.166 91.602 105.362 92.3209 103.874 93.8521C102.43 95.3381 101.71 97.2259 101.71 99.476C101.71 101.726 102.43 103.617 103.919 105.1C105.408 106.586 107.211 107.305 109.42 107.305C111.629 107.305 114.11 106.359 115.868 104.514L116.455 103.883L121.639 109.283L121.097 109.869C117.986 113.2 114.065 114.91 109.42 114.91L109.375 115.001Z" fill="#00A5A3"/>
<path d="M80.3409 114.956C74.5705 114.956 70.1526 112.751 68.2131 108.882L67.9437 108.296L73.3994 103.705L73.8956 104.469C75.1121 106.36 77.6386 107.574 80.5224 107.574C83.4062 107.574 84.6709 107.351 84.6709 105.369C84.6709 103.388 83.8599 104.064 83.4998 103.883H83.4544C82.9582 103.524 81.8325 103.164 81.064 102.893L80.253 102.624C79.3967 102.355 78.3135 101.993 77.5932 101.724C72.5431 99.9237 70.2434 97.2688 70.2434 93.1733C70.2434 89.0778 71.2812 88.1324 73.354 86.4682C75.4268 84.8492 77.9534 84.0369 80.8372 84.0369C84.9403 84.0369 88.187 85.5229 90.4413 88.4013L90.8468 88.9419L86.0235 94.0281L85.4365 93.2639C84.3987 91.9591 82.8221 91.2826 80.7039 91.2826C78.5857 91.2826 78.1802 91.7327 78.1802 92.9469C78.1802 94.1611 78.3617 93.7564 79.0819 94.2064C79.218 94.297 79.7143 94.5658 81.1548 95.1064C81.9204 95.33 83.1822 95.7801 84.1747 96.0971L84.6255 96.2329C90.1266 98.1689 92.6049 100.957 92.6049 105.233C92.6049 109.51 87.9148 114.862 80.4317 114.862L80.3409 114.953V114.956Z" fill="#00A5A3"/>
<path d="M64.3794 88.3615C61.7196 85.5255 58.2034 84.0877 53.9642 84.0877C49.725 84.0877 45.8488 85.5284 42.965 88.3615C40.1237 91.2428 38.6832 94.9761 38.6832 99.5669V99.7905C38.6832 104.336 40.1265 108.027 43.0103 110.769C45.8516 113.515 49.6371 114.91 54.1911 114.91C58.745 114.91 63.1629 113.155 66.4097 109.691L66.9966 109.105L61.9011 104.11L61.3141 104.695C59.3292 106.677 57.0749 107.665 54.4151 107.665C50.312 107.665 47.5161 105.55 46.9773 102.041H68.3464V101.276C68.4825 100.512 68.5278 99.7452 68.5278 98.8905C68.5278 94.7497 67.1753 91.1947 64.4701 88.3615H64.3794ZM47.1588 95.7403C47.4735 94.6591 48.1059 93.7166 49.1437 92.9043C50.4963 91.8683 52.1183 91.2853 53.9671 91.2853C55.8159 91.2853 57.0777 91.8259 58.3396 92.9043C59.2866 93.7137 59.8736 94.6591 60.0522 95.695H47.1588V95.7403Z" fill="#00A5A3"/>
<path d="M28.1319 114.237H19.9711V84.8972H28.1319V87.1926C29.89 85.3473 32.5044 84.3113 35.5697 84.3113C38.635 84.3113 37.1038 84.3566 37.6879 84.4925L38.3628 84.6283V92.6835L37.3703 92.5024C36.514 92.3212 35.6576 92.2335 34.8013 92.2335C30.6982 92.2335 28.1291 94.7525 28.1291 98.848V114.239L28.1319 114.237Z" fill="#00A5A3"/>
<path d="M13.2536 115.001C6.8508 115.001 3.47077 111.446 3.47077 104.786V92.4992H0V84.8941H3.47077V74.2293H11.677V84.8488H17.7622V92.4539H11.677V104.019C11.677 106.809 12.5787 107.35 14.3368 107.35C16.0948 107.35 15.8708 107.305 16.455 107.169L17.4474 106.945V114.505L16.8151 114.641C15.8226 114.865 14.6062 115.001 13.2082 115.001H13.2536Z" fill="#00A5A3"/>
<path d="M182.907 88.5849C180.111 88.5849 177.812 86.2894 177.812 83.4534C177.812 80.6174 180.111 78.322 182.907 78.322C185.703 78.322 188.003 80.6174 188.003 83.4534C188.003 86.2894 185.703 88.5849 182.907 88.5849Z" fill="#C0F43C"/>
<path d="M20.5609 37.6523H11.073L22.0269 26.7186H28.3389V82.6832H20.5609V37.6523Z" fill="#00A5A3"/>
<path d="M60.8661 26.7186C68.3237 26.7186 75.4155 29.6509 80.6869 34.9182C85.9611 40.1798 88.8988 47.2613 88.8988 54.7023H81.1633C81.1633 49.3105 79.0394 44.1904 75.217 40.3779C71.3975 36.5626 66.2707 34.4427 60.8661 34.4427C55.4614 34.4427 50.3347 36.5626 46.5123 40.3779C42.6927 44.1904 40.566 49.3077 40.566 54.7023C40.566 60.097 42.6927 65.2142 46.5123 69.0295C48.5879 71.0985 51.0436 72.6694 53.726 73.6713C52.4415 75.5422 50.9954 77.7329 49.3876 80.2349C46.311 78.8565 43.4839 76.9234 41.0424 74.4893C35.7682 69.2248 32.8305 62.1461 32.8305 54.7023C32.8305 47.2585 35.7682 40.1798 41.0424 34.9182C46.3138 29.6537 53.4084 26.7186 60.8632 26.7186H60.8661Z" fill="#00A5A3"/>
<path d="M113.132 63.3571C112.964 63.4675 112.786 63.558 112.655 63.6231C111.635 64.0958 110.205 64.3788 109.083 64.4496C107.523 64.5487 106.253 64.2911 105.127 63.1674C105.025 63.0656 104.71 62.7599 104.546 62.6721C103.74 63.0854 100.247 66.8016 99.6372 67.4752C99.2884 67.8573 97.5275 69.8301 97.0171 69.8301C96.7392 69.8301 96.4018 69.6688 96.2089 69.4791C95.7836 69.0546 96.1664 67.9564 96.5832 67.0733C96.0785 67.4243 95.5624 67.7668 95.0378 68.064C93.2032 69.1112 90.6994 70.3848 88.7768 68.8366C87.946 68.1659 87.8666 67.863 87.8666 66.8101V66.278L86.7494 67.1158C85.3146 68.1913 81.858 70.6792 79.9581 69.5273C79.3258 69.1423 79.1954 68.4574 79.2833 67.7894C77.029 69.1706 74.3493 70.3848 71.6782 69.9631C69.7783 69.6291 67.9154 68.5593 68.1706 66.3771C68.4428 64.059 71.2869 61.2626 73.6574 61.2626C73.9864 61.2626 74.2983 61.3475 74.5875 61.4919C75.1943 61.7777 75.6027 62.2985 75.5431 62.992C75.4864 63.7279 74.9221 64.3873 74.389 64.8402C73.6489 65.511 72.8521 65.6978 71.8824 65.7799C71.7548 65.7827 70.5553 65.7799 70.5156 65.7969C70.4986 65.8138 70.4731 65.8619 70.4646 65.8789C70.3426 66.128 70.3143 66.6177 70.3625 66.895V66.9262C70.439 68.0951 71.7236 68.2394 72.6593 68.2394C75.597 68.2394 79.4109 65.4742 81.6425 63.776C82.2947 63.1335 83.0291 62.5561 83.823 62.1004C84.617 61.6504 85.5698 61.2626 86.5027 61.2626C87.5178 61.2626 88.3685 61.7042 88.8307 62.624L88.998 62.958L89.3723 62.658C89.9735 62.1683 90.5207 61.7636 91.1701 62.4146C91.7202 62.9608 91.119 63.8269 90.8241 64.3619C90.481 64.9817 89.6105 66.7167 90.0699 67.4328C90.3336 67.7555 90.671 67.6762 91.0652 67.6422C93.1436 67.4639 95.7978 65.3723 97.3602 64.1184C97.9188 63.6911 98.4746 63.2439 99.0502 62.8391C99.5294 62.1344 100.298 60.9966 101.202 61.8004C101.608 62.1231 101.599 62.4202 101.452 62.7486C101.778 62.491 102.09 62.2334 102.223 62.1259C102.81 61.6645 104.032 60.6456 104.772 60.5126C105.527 60.3767 105.921 60.9796 106.255 61.5372C106.888 62.4797 107.273 62.5929 108.464 62.5929C109.403 62.5929 110.208 62.4401 111.099 62.1457L111.345 62.0636L111.411 62.191C112.049 61.9674 113.186 61.6306 113.566 62.1627C113.943 61.5315 114.569 60.9315 115.324 60.9315C115.511 60.9315 115.67 60.9428 115.843 61.0249C116.719 61.3815 116.767 62.0976 115.931 62.5589C115.151 62.9863 115.284 63.9458 115.48 64.6789C115.517 64.826 115.701 65.5449 115.826 65.7148C115.865 65.695 115.925 65.6553 115.948 65.6355C116.24 65.4431 116.914 65.2025 117.246 65.0695C118.071 64.7298 118.905 64.4072 119.736 64.0788C121.364 63.4392 123.048 62.9297 124.658 62.2844L126.028 61.741L125.878 61.891C126.635 61.6928 127.398 61.69 127.398 62.5646C127.398 63.3061 125.96 63.759 125.41 63.9684C123.626 64.6619 121.812 65.2959 120.019 65.961L116.393 67.4215L116.285 68.313C116.072 69.8584 115.023 71.2339 113.568 71.8057C112.624 72.1793 111.033 72.4708 110.112 71.9189C109.216 71.4236 109.445 69.9999 110.035 69.3376C110.693 68.5989 112.548 67.3847 113.447 66.8809L113.775 66.7167L113.43 65.2223C113.234 64.4807 113.058 63.9543 113.129 63.3599L113.132 63.3571ZM68.1309 56.8558C67.4191 57.5492 66.7074 58.2426 65.9928 58.9417C65.1592 59.7541 64.3198 60.5664 63.4805 61.373C62.644 62.1768 61.799 62.9722 60.9455 63.759C58.8868 65.6525 54.3102 69.2499 51.3895 67.0592C48.8176 65.1345 49.6711 60.3682 50.4849 57.7954C51.1655 55.6614 52.1268 53.5867 53.2411 51.6423C53.2837 51.5715 53.3262 51.4951 53.3688 51.4243C53.1192 51.6762 52.864 51.931 52.606 52.1744C52.4869 52.2876 52.2147 52.531 52.1268 52.664C51.968 52.9471 51.7439 53.2329 51.4179 53.3376C51.0719 53.4367 50.7572 53.3405 50.5105 53.0942C50.2297 52.814 50.1929 52.4489 50.3148 52.0838V52.0725L50.3205 52.0612C50.553 51.5007 51.0833 50.9035 51.4973 50.4648C52.1239 49.8025 52.7846 49.1657 53.4595 48.5544C54.1457 47.9317 54.8319 47.3232 55.5351 46.7259C56.0285 46.3042 56.5248 45.8853 57.0238 45.4806C57.4463 45.124 57.8802 44.773 58.3197 44.4305C58.8103 44.0513 59.3745 43.9437 59.8169 44.4362C60.1912 44.8041 60.194 45.274 59.9332 45.7183C59.6071 46.2618 59.1817 46.808 58.7876 47.3033C58.1099 48.1638 57.452 49.044 56.797 49.9214C55.0247 52.3017 53.4595 55.4406 52.484 58.2426C51.9198 59.8729 50.794 63.9656 52.5606 65.2676C54.4548 66.6658 58.1666 63.5948 59.4426 62.4457C59.8878 62.041 60.3301 61.6391 60.7753 61.2287C62.057 60.0484 63.3189 58.854 64.5665 57.6398C65.783 56.4567 66.9938 55.2708 68.1932 54.0707C69.2254 53.0405 70.2519 52.013 71.2812 50.9828C72.0043 50.2611 72.7444 49.5336 73.51 48.8572L73.5213 48.8515L73.527 48.8459C73.7368 48.6874 73.9864 48.5147 74.2302 48.4185C74.4599 48.3251 74.6953 48.3223 74.9249 48.4128C75.3701 48.5402 75.6679 48.8572 75.5573 49.3469C75.4467 49.845 74.8994 50.6686 74.6159 51.096C73.8389 52.2678 73.0024 53.4197 72.1744 54.5604C70.7453 56.5161 69.3615 58.5087 67.9919 60.5041C65.9163 63.5241 63.9002 66.5865 61.9067 69.6603C60.1345 72.3916 58.4416 75.1993 56.7431 77.9787C54.8262 81.1091 52.9236 84.2451 50.9982 87.367C50.7543 87.7802 50.5105 88.1934 50.2694 88.6038C50.0369 88.9972 49.6655 89.1501 49.2316 89.0652C48.9197 89.0199 48.6702 88.8501 48.5256 88.5614C48.3668 88.25 48.4235 87.916 48.5738 87.6104C48.7637 87.2424 49.0303 86.8348 49.243 86.4754C50.6919 84.047 52.0757 81.5534 53.5644 79.1561C54.3102 77.9589 55.0673 76.7673 55.8329 75.5814C56.6807 74.2596 57.5257 72.9322 58.3622 71.5991C59.1732 70.2999 60.004 69.0121 60.849 67.73C61.5523 66.6629 62.2385 65.5902 62.9417 64.5232C64.5353 62.0948 66.1516 59.6776 67.8161 57.3001C67.9182 57.153 68.0174 57.0086 68.1195 56.8614H68.1224L68.1309 56.8558ZM112.363 70.1301L112.318 70.0905L112.627 69.8839C112.928 69.6829 113.696 68.9527 113.863 68.5083C113.319 68.8253 111.768 69.9943 111.428 70.365H111.527C111.754 70.365 112.085 70.2547 112.363 70.1301ZM86.0717 65.3327C86.4318 65.0723 87.0046 64.6647 87.2087 64.3958C87.3307 64.2317 87.2655 64.0873 87.2116 63.909C87.1634 63.7618 86.9932 63.3288 86.8798 63.2156L86.8571 63.2014L86.8231 63.1674C86.7948 63.1448 86.7352 63.1222 86.6927 63.1222C85.8533 63.0797 84.3221 64.2685 83.7266 64.7892C82.9157 65.4968 81.6538 66.8129 81.4015 67.8743C81.3901 67.914 81.3674 68.0215 81.3617 68.0979C81.7105 68.03 82.6945 67.4583 82.8873 67.3479C83.8599 66.7337 84.8694 66.0799 85.7881 65.3751L85.9356 65.2591L86.0745 65.327L86.0717 65.3327ZM71.9022 63.9033C71.9362 63.9147 71.9731 63.9175 72.0014 63.9147C72.1829 63.8864 72.5601 63.6967 72.7274 63.6175C72.9117 63.5241 73.337 63.2071 73.493 62.9495C73.0591 63.0684 72.3049 63.5779 72.044 63.7873L71.8994 63.9005L71.9022 63.9033Z" fill="#00A5A3"/>
</svg>
