<svg width="237" height="123" viewBox="0 0 237 123" fill="none" xmlns="http://www.w3.org/2000/svg">
<g clip-path="url(#clip0_46_2671)">
<path d="M7.29087 7.02085H5.87927V8.82748H4.4448V7.02085H0.0727692V5.99827L3.9999 0.875H5.58198L1.88145 5.77011H4.48845V4.16883H5.87719V5.77011H7.2888V7.01878L7.29087 7.02085Z" fill="white"/>
<path d="M14.3385 4.71417C14.3385 7.43966 12.7439 8.93931 10.4322 8.93931C9.63592 8.93931 8.87295 8.76923 8.33658 8.42906L8.88334 7.31521C9.31576 7.59938 9.83966 7.70101 10.3968 7.70101C11.8999 7.70101 12.8458 6.7697 12.8458 4.96307V4.9527C12.3677 5.50858 11.6047 5.78238 10.717 5.78238C9.14529 5.78238 7.97276 4.82825 7.97276 3.33897C7.97276 1.76051 9.25963 0.760742 10.8874 0.760742C13.062 0.760742 14.3385 2.15875 14.3385 4.71417ZM12.6192 3.26015C12.6192 2.50929 12.0267 1.92022 10.9685 1.92022C10.0455 1.92022 9.40932 2.44292 9.40932 3.2726C9.40932 4.10228 10.0351 4.62497 11.0039 4.62497C11.9727 4.62497 12.6213 4.04627 12.6213 3.26223L12.6192 3.26015Z" fill="white"/>
<path d="M17.8582 4.85129C17.6586 5.011 17.3592 5.08982 17.0619 5.08982C16.2844 5.08982 15.8395 4.67913 15.8395 3.89716V2.19424H15.2553V1.53257H15.8395V0.723633H16.669V1.53257H17.6191V2.19424H16.669V3.87642C16.669 4.22073 16.8416 4.40741 17.1596 4.40741C17.3322 4.40741 17.4985 4.36178 17.6253 4.26222L17.8582 4.85129Z" fill="white"/>
<path d="M22.2323 3.01521V5.04171H21.4028V3.121C21.4028 2.49252 21.0909 2.18761 20.5587 2.18761C19.9683 2.18761 19.5691 2.54645 19.5691 3.25375V5.04171H18.7396V0.12793H19.5691V1.91589C19.8415 1.62343 20.2593 1.46579 20.75 1.46579C21.6003 1.46579 22.2302 1.94908 22.2302 3.01521H22.2323Z" fill="white"/>
<path d="M32.9409 4.75992H34.3421V7.92929C33.5106 8.59926 32.3484 8.93943 31.2216 8.93943C28.7498 8.93943 26.9286 7.22407 26.9286 4.84911C26.9286 2.47415 28.7498 0.758789 31.2445 0.758789C32.5771 0.758789 33.6935 1.20267 34.444 2.05309L33.5106 2.96159C32.8848 2.33725 32.1676 2.05309 31.3131 2.05309C29.6167 2.05309 28.4213 3.20012 28.4213 4.84704C28.4213 6.49395 29.6167 7.64098 31.3027 7.64098C31.8723 7.64098 32.4295 7.5269 32.943 7.23236V4.75577L32.9409 4.75992Z" fill="white"/>
<path d="M36.4939 0.397461H37.9179V8.82701H36.4939V0.397461Z" fill="white"/>
<path d="M39.6247 5.79331C39.6247 3.97631 40.9906 2.69238 42.8596 2.69238C44.7286 2.69238 46.1048 3.97631 46.1048 5.79331C46.1048 7.61031 44.7493 8.90668 42.8596 8.90668C40.9698 8.90668 39.6247 7.61238 39.6247 5.79331ZM44.6683 5.79331C44.6683 4.63383 43.8949 3.89542 42.8575 3.89542C41.8201 3.89542 41.0592 4.63383 41.0592 5.79331C41.0592 6.95279 41.8347 7.6912 42.8575 7.6912C43.8803 7.6912 44.6683 6.95279 44.6683 5.79331Z" fill="white"/>
<path d="M54.2668 5.79245C54.2668 7.6779 52.957 8.90583 51.1816 8.90583C50.35 8.90583 49.6453 8.62166 49.1671 8.04296V8.82701H47.8116V0.397461H49.2357V3.49839C49.7263 2.95287 50.4082 2.69153 51.1837 2.69153C52.9591 2.69153 54.2688 3.90701 54.2688 5.79245H54.2668ZM52.8219 5.79245C52.8219 4.63298 52.0485 3.89456 51.0236 3.89456C49.9987 3.89456 49.2128 4.63298 49.2128 5.79245C49.2128 6.95193 49.9987 7.69035 51.0236 7.69035C52.0485 7.69035 52.8219 6.95193 52.8219 5.79245Z" fill="white"/>
<path d="M60.9755 5.26976V8.82493H59.6325V8.08652C59.2916 8.60922 58.6305 8.90375 57.7199 8.90375C56.3312 8.90375 55.4538 8.14252 55.4538 7.08675C55.4538 6.03099 56.1378 5.28013 57.9818 5.28013H59.5535V5.18886C59.5535 4.35918 59.0525 3.87175 58.038 3.87175C57.354 3.87175 56.6492 4.09991 56.1939 4.47326L55.6368 3.44031C56.2854 2.94043 57.2313 2.68945 58.2105 2.68945C59.9652 2.68945 60.9776 3.51913 60.9776 5.26768L60.9755 5.26976ZM59.5515 6.92912V6.22389H58.0816C57.1128 6.22389 56.8509 6.58687 56.8509 7.03075C56.8509 7.54101 57.2833 7.8708 58.013 7.8708C58.7427 7.8708 59.3103 7.55345 59.5494 6.92704L59.5515 6.92912Z" fill="white"/>
<path d="M63.1376 0.397461H64.5617V8.82701H63.1376V0.397461Z" fill="white"/>
<path d="M76.3701 7.58918V8.82748H70.3911V0.875H76.2101V2.1133H71.8713V4.18127H75.7194V5.39675H71.8713V7.58918H76.3701Z" fill="white"/>
<path d="M84.1246 0.397461V8.82701H82.7587V8.04296C82.2806 8.62166 81.5737 8.90583 80.7442 8.90583C78.9792 8.90583 77.6695 7.6779 77.6695 5.79245C77.6695 3.90701 78.9792 2.69153 80.7442 2.69153C81.5301 2.69153 82.2245 2.95287 82.7026 3.50876V0.397461H84.1267H84.1246ZM82.7234 5.79245C82.7234 4.63298 81.9376 3.89456 80.9126 3.89456C79.8877 3.89456 79.1019 4.63298 79.1019 5.79245C79.1019 6.95193 79.8877 7.69035 80.9126 7.69035C81.9376 7.69035 82.7234 6.95193 82.7234 5.79245Z" fill="white"/>
<path d="M86.1391 0.90816C86.1391 0.431094 86.5258 0.0556641 87.0497 0.0556641C87.5736 0.0556641 87.9603 0.408278 87.9603 0.872898C87.9603 1.37278 87.584 1.75858 87.0497 1.75858C86.5154 1.75858 86.1391 1.38315 86.1391 0.906086V0.90816ZM86.3324 2.76042H87.7565V8.82745H86.3324V2.76042Z" fill="white"/>
<path d="M93.6212 8.49721C93.2803 8.76893 92.7668 8.90583 92.2554 8.90583C90.9228 8.90583 90.1598 8.2006 90.1598 6.86067V3.94019H89.1577V2.80353H90.1598V1.41797H91.5839V2.80353H93.2117V3.94019H91.5839V6.82541C91.5839 7.41655 91.8791 7.7339 92.4258 7.7339C92.7211 7.7339 93.0059 7.65509 93.2221 7.48293L93.6212 8.49514V8.49721Z" fill="white"/>
<path d="M94.9414 0.90816C94.9414 0.431094 95.3281 0.0556641 95.8519 0.0556641C96.3758 0.0556641 96.7625 0.408278 96.7625 0.872898C96.7625 1.37278 96.3862 1.75858 95.8519 1.75858C95.3177 1.75858 94.9414 1.38315 94.9414 0.906086V0.90816ZM95.1347 2.76042H96.5588V8.82745H95.1347V2.76042Z" fill="white"/>
<path d="M98.2656 5.79331C98.2656 3.97631 99.6315 2.69238 101.5 2.69238C103.369 2.69238 104.746 3.97631 104.746 5.79331C104.746 7.61031 103.39 8.90668 101.5 8.90668C99.6107 8.90668 98.2656 7.61238 98.2656 5.79331ZM103.311 5.79331C103.311 4.63383 102.538 3.89542 101.5 3.89542C100.463 3.89542 99.7022 4.63383 99.7022 5.79331C99.7022 6.95279 100.478 7.6912 101.5 7.6912C102.523 7.6912 103.311 6.95279 103.311 5.79331Z" fill="white"/>
<path d="M112.444 5.35151V8.82786H111.02V5.53404C111.02 4.45545 110.486 3.93275 109.573 3.93275C108.561 3.93275 107.877 4.54672 107.877 5.7622V8.82994H106.453V2.76083H107.808V3.54488C108.276 2.98899 109.016 2.69238 109.904 2.69238C111.361 2.69238 112.442 3.52206 112.442 5.35151H112.444Z" fill="white"/>
<path d="M126.367 62.207H132.414V70.6304H126.367V62.207Z" fill="#1B9AD6"/>
<path d="M149.169 55.8392H132.414V46.2129H126.367V61.1886H149.169V70.6656H155.069V46.2129H149.169V55.8392Z" fill="#1B9AD6"/>
<path d="M185.238 48.122C184.571 47.4562 183.606 46.975 182.27 46.641C181.12 46.3631 179.636 46.2158 177.817 46.2158H168.892C167.054 46.2158 165.572 46.3631 164.42 46.641C163.27 46.9376 162.118 47.4562 161.451 48.122C160.728 48.7152 160.301 49.5096 159.948 50.7687L159.335 51.3806H177.702C178.091 51.3806 178.482 51.3806 178.814 51.4739C179.056 51.4739 179.297 51.5299 179.482 51.5299C180.02 51.6772 180.39 51.9178 180.594 52.1584C180.816 52.4363 181.114 52.8242 181.207 53.1582C181.355 53.6767 181.355 54.2139 181.355 54.8797V61.9694C181.355 62.6352 181.355 63.2097 181.207 63.7283C181.06 64.2095 180.873 64.4501 180.594 64.6907C180.297 64.9313 180.018 65.1719 179.482 65.3192C179.297 65.3192 179.056 65.3192 178.814 65.3565C178.48 65.3565 178.091 65.4499 177.702 65.4499H169.075C168.592 65.4499 168.258 65.4499 167.925 65.3565C167.628 65.3565 167.386 65.3192 167.145 65.3192C166.626 65.1719 166.237 64.9313 166.05 64.6907C165.863 64.4501 165.715 64.2095 165.567 63.7283C165.42 63.2097 165.42 62.6725 165.42 61.9694V54.8797C165.42 54.2139 165.42 53.6394 165.567 53.1022V52.4363H159.52V62.1C159.52 63.693 159.667 65.0247 159.946 66.0244C160.299 67.1901 160.763 68.0426 161.449 68.7084C162.21 69.3369 163.322 69.8181 164.362 70.1894C165.511 70.486 167.014 70.6706 168.833 70.6706H177.758C179.577 70.6706 181.062 70.542 182.211 70.2454C183.27 69.8202 184.382 69.3763 185.143 68.7644C185.81 68.0426 186.292 67.1901 186.627 66.0244C186.924 65.0247 187.072 63.693 187.072 62.1V54.6039C187.072 53.1042 186.924 51.8639 186.627 50.8081C186.349 49.5117 185.81 48.6613 185.105 48.1241H185.234L185.238 48.122Z" fill="#1B9AD6"/>
<path d="M121.431 59.2831C121.134 58.6173 120.764 57.9868 120.078 57.3583C119.558 56.9331 118.797 56.4518 117.685 56.3212C116.814 56.0246 115.662 55.8773 114.328 55.8773H103.139C102.434 55.8773 101.895 55.784 101.525 55.5434C101.322 55.3587 101.228 54.8775 101.228 54.247V52.5254H95.7542V54.3942C95.7542 55.5039 95.7542 56.4124 96.0515 57.1716C96.1804 58.078 96.6648 58.7086 97.1097 59.2811C97.8706 59.9095 98.5941 60.2435 99.355 60.3742C100.226 60.6708 101.378 60.818 102.712 60.818H114.049C114.81 60.818 115.44 60.9466 115.812 61.152C116.201 61.5212 116.388 61.8738 116.388 62.577V63.8733C116.388 64.4479 116.203 64.9291 115.812 65.1697C115.477 65.4103 114.81 65.5576 113.993 65.5576H95.5131V70.7223H114.271C115.625 70.7223 116.777 70.5751 117.629 70.2971C118.741 69.9445 119.467 69.6686 119.984 69.2414C120.523 68.7041 120.986 68.0943 121.338 67.0759C121.616 66.3727 121.764 65.3543 121.764 64.1139V62.299C121.764 61.1893 121.616 60.2435 121.338 59.3744V59.2811H121.431V59.2831Z" fill="#1B9AD6"/>
<path d="M99.5379 46.5103C98.592 46.8442 97.8685 47.2694 97.4423 47.8979C96.8665 48.3604 96.4216 49.0449 96.089 49.9887V50.4326C96.089 50.6172 95.9954 50.8018 95.9954 51.0984V51.4323H122.007V46.2676H102.86C101.654 46.2676 100.467 46.3962 99.6876 46.5455H99.54V46.5082L99.5379 46.5103Z" fill="#1B9AD6"/>
<path d="M216.872 48.0284C216.574 47.3253 216.092 46.6408 215.61 46.3629C215.034 45.9376 214.329 45.7344 213.308 45.7344C212.288 45.7344 211.73 45.9376 211.157 46.3629C210.674 46.6968 210.192 47.3253 209.913 48.0284L203.772 61.5792L206.5 68.3348L213.308 54.0249L219.932 68.6667C220.229 69.3699 220.711 70.0544 221.323 70.4816C221.805 70.9069 222.472 71.1101 223.53 71.1101C224.589 71.1101 225.127 70.9069 225.738 70.4816C225.738 70.3883 225.832 70.3344 225.886 70.297H226.275L222.285 60.3388L216.905 48.0284H216.811H216.867H216.872Z" fill="#1B9AD6"/>
<path d="M223.867 61.635L226.892 68.9465L227.227 68.3346C227.524 67.7601 227.803 67.0383 228.098 66.1692C228.728 64.8728 229.304 63.5951 229.823 62.2074C230.491 60.8198 231.214 59.4301 231.79 57.8392C232.551 56.1736 233.237 54.6926 233.757 53.3029C234.146 52.5811 234.48 51.8593 234.759 51.1935C235.056 50.565 235.335 50.0464 235.576 49.4719C236.021 48.1755 236.447 47.3624 236.688 46.7879L236.929 46.3066H230.343L223.83 61.635H223.867Z" fill="#1B9AD6"/>
<path d="M201.749 59.5234L196.425 46.3066H189.764L199.153 68.7059C199.394 69.3717 199.839 70.0023 200.359 70.5395C200.934 71.0021 201.695 71.2053 202.66 71.2053C203.625 71.2053 204.257 71.0021 204.868 70.5768C204.961 70.4835 205.072 70.3922 205.165 70.3362C205.35 70.189 205.535 70.0583 205.685 69.7617V69.6144L203.44 63.6905L201.695 59.5628H201.751V59.5255L201.749 59.5234Z" fill="#1B9AD6"/>
<path d="M19.2199 82.1636H47.2545L41.818 73.4996H24.359L34.5812 57.0243L40.1466 66.1321L53.0423 87.0877L56.3998 92.6963H69.0356L42.4854 50.3246C41.5395 48.7503 40.7224 47.7505 39.7017 46.9748C38.4585 46.031 36.6955 45.5498 34.5812 45.5498C32.4669 45.5498 30.9826 46.0684 29.7393 46.9748C28.44 47.9372 27.3839 49.0842 26.6604 50.3246L0.0727692 92.7337H12.6899L19.1845 82.2569V82.1636H19.222H19.2199Z" fill="#1B9AD6"/>
<path d="M77.5156 46.5469H88.3698V92.6397H77.5156V46.5469Z" fill="#1B9AD6"/>
<path d="M166.869 37.0705C167.927 36.6453 169.021 36.218 169.8 35.5895C170.505 34.8677 170.95 34.0152 171.284 32.8682C171.526 31.9991 171.86 30.6094 171.86 28.9438V21.429C171.86 20.2819 171.675 19.0229 171.284 17.6518C170.987 16.3555 170.467 15.4864 169.744 14.9678C169.077 14.302 168.112 13.8208 166.775 13.4868C165.626 13.1902 164.123 13.043 162.303 13.043H143.156V18.2264H162.212C162.601 18.2264 162.973 18.2264 163.324 18.3197H163.992C164.511 18.4483 164.9 18.6889 165.087 18.9316C165.328 19.1722 165.626 19.6161 165.717 19.9501C165.865 20.4686 165.865 20.9872 165.865 21.6716V28.7426C165.865 29.4271 165.865 29.9456 165.752 30.4642C165.659 30.6114 165.567 30.8168 165.511 30.9454C165.418 31.1487 165.326 31.3333 165.177 31.4826C164.842 31.7232 164.472 31.9638 164.118 31.9638H164.025C163.449 32.0924 162.929 32.2418 162.262 32.2418H149.256V19.2656H143.208V37.4998H162.355C164.174 37.4998 165.659 37.3712 166.809 37.0746H166.865L166.869 37.0705Z" fill="#1B9AD6"/>
<path d="M114.473 30.2756C114.473 29.9416 114.38 29.6098 114.38 29.2758V13.375H120.28V29.1285C120.28 29.6471 120.408 30.3316 120.521 30.7029V30.9995L121.097 31.574H114.473V30.2776V30.2756Z" fill="#1B9AD6"/>
<path d="M114.419 32.5342H137.926V37.6056H123.25C121.618 37.6056 120.134 37.4583 118.835 37.1617C117.629 36.6992 116.774 36.2553 116.107 35.7367C115.328 34.9216 114.754 34.0152 114.475 33.0527V32.5342H114.419Z" fill="#1B9AD6"/>
<path d="M67.4036 18.5583H49.0174L49.6473 17.9298C49.9259 16.6895 50.4082 15.8743 51.1317 15.3018C51.7991 14.636 52.7637 14.1548 54.1005 13.8208C55.2501 13.5242 56.7532 13.377 58.5723 13.377H67.4972C69.3163 13.377 70.8006 13.5242 71.9503 13.8208C73.1 14.0988 74.2704 14.636 74.9377 15.3018C75.6612 15.8764 76.1248 16.7268 76.4221 17.9858C76.7007 18.9856 76.8483 20.282 76.8483 21.7629V29.2778C76.8483 30.8521 76.7007 32.2024 76.4221 33.2021C76.0874 34.3492 75.6612 35.2017 74.9377 35.8862C74.1581 36.498 73.0646 36.9793 72.0064 37.3671C70.8568 37.6451 69.3724 37.8484 67.5346 37.8484H58.6097C56.7906 37.8484 55.3624 37.7011 54.1566 37.4045C53.0984 36.9793 52.0049 36.552 51.2253 35.9235C50.5018 35.2017 50.0756 34.3492 49.7409 33.2021C49.4436 32.2024 49.3147 30.8521 49.3147 29.2778V19.6141H55.3624V20.2799C55.2148 20.7984 55.2148 21.3357 55.2148 22.0388V29.1284C55.2148 29.7942 55.2148 30.3688 55.3624 30.906C55.4913 31.4246 55.6035 31.6092 55.826 31.8498C56.0297 32.053 56.4018 32.331 56.9382 32.4783H57.6991C58.0338 32.4783 58.4226 32.5716 58.8488 32.5716H67.4951C67.8839 32.5716 68.256 32.5716 68.5907 32.4783H69.2768C69.7965 32.331 70.1853 32.0904 70.3724 31.8498C70.6697 31.5718 70.9108 31.3312 71.0023 30.906C71.1312 30.3688 71.1312 29.8502 71.1312 29.1284V22.0388C71.1312 21.373 71.1312 20.7984 71.0023 20.3172C70.9087 19.9833 70.6676 19.6141 70.3724 19.3175C70.1873 19.1329 69.7965 18.8362 69.2768 18.689H68.5907C68.256 18.689 67.886 18.5956 67.4951 18.5956H67.4016V18.5583H67.4036Z" fill="#1B9AD6"/>
<path d="M9.47793 35.5331L0.0727692 13.1338H6.69629L12.0205 26.4066L13.746 30.5156L16.0474 36.4582V36.5868C15.8624 36.8274 15.7127 37.0306 15.4715 37.1613C15.378 37.2733 15.2865 37.3086 15.193 37.4019H15.1368C14.5235 37.8831 13.9497 38.0864 12.929 38.0864C11.9082 38.0864 11.2035 37.8831 10.6276 37.4579H10.5902C10.0517 36.8834 9.62553 36.2549 9.38437 35.5891H9.47793V35.5331Z" fill="#1B9AD6"/>
<path d="M16.8623 35.2553L14.1348 28.4623L20.276 14.9116C20.5733 14.1898 20.9995 13.524 21.5192 13.19C22.0951 12.7648 22.725 12.5615 23.6896 12.5615C24.6542 12.5615 25.4151 12.7648 25.991 13.19C26.4733 13.524 26.9556 14.1524 27.2342 14.9116L32.6145 27.222L36.5853 37.1263H36.2153C36.2153 37.1263 36.1217 37.2196 36.0677 37.3109C35.4377 37.7921 34.8619 37.9767 33.8598 37.9767C32.8578 37.9767 32.1343 37.7921 31.652 37.3648C31.0221 36.8836 30.5938 36.309 30.2612 35.5312L23.6376 20.8894L16.8291 35.1993H16.8665V35.2553H16.8623Z" fill="#1B9AD6"/>
<path d="M37.2714 35.7737L34.2465 28.4621L40.7598 13.1338H47.346L47.1048 13.615C46.8075 14.1896 46.3813 15.0026 45.9926 16.2617C45.714 16.8362 45.4167 17.4087 45.1381 17.9833C44.8408 18.6491 44.4708 19.3709 44.1173 20.0741C43.5415 21.4617 42.8741 22.9427 42.1507 24.6269C41.5748 26.2012 40.87 27.6449 40.184 29.0325C39.6642 30.4202 39.1258 31.7165 38.5146 32.9942C38.2173 33.8633 37.9387 34.5872 37.6435 35.1597L37.3088 35.7716H37.2714V35.7737Z" fill="#1B9AD6"/>
<path d="M87.2555 37.8457H81.3554V19.5015H87.2555V25.2035H99.9828C100.465 25.2035 100.837 25.2035 101.226 25.1101H102.097C102.617 24.9629 103.006 24.8695 103.247 24.7223C103.581 24.4817 103.673 24.2971 103.823 23.9071C103.952 23.6292 104.064 23.1479 104.064 22.4261V21.1298C104.064 20.7045 103.952 20.2233 103.823 19.7048C103.675 19.4642 103.581 19.2236 103.247 19.0203C103.006 18.8917 102.617 18.7984 102.097 18.6511H101.226C100.891 18.6511 100.465 18.5577 99.9828 18.5577H81.4116V13.4863H100.318C102.099 13.4863 103.527 13.6149 104.586 13.7643C106.033 14.0609 106.941 14.3928 107.702 14.9673C108.425 15.5419 109.055 16.301 109.484 17.2074C109.762 18.3171 109.91 19.4662 109.91 20.8912V22.6128C109.91 24.2058 109.725 25.2968 109.334 26.112C109.055 27.0184 108.425 27.7962 107.515 28.3708C106.791 28.9453 105.827 29.2772 104.399 29.5551C104.01 29.5551 103.581 29.6485 103.045 29.7024L110.301 37.8851H102.619L95.3281 29.7958H87.2202V37.8851H87.2576V37.8478L87.2555 37.8457Z" fill="#1B9AD6"/>
<path d="M98.0536 75.1653L95.7522 77.4241V92.7337H213.549L215.851 90.4376V75.1279H98.0536V75.1653Z" stroke="white" stroke-width="0.5" stroke-miterlimit="1.35"/>
<path d="M129.78 86.8468H123.398L121.914 89.2902H119.223L125.309 79.5726C125.512 79.2387 125.753 78.998 125.976 78.8134C126.217 78.6102 126.606 78.4795 127.034 78.4795C127.462 78.4795 127.905 78.6081 128.146 78.8134C128.387 78.998 128.573 79.2387 128.76 79.5726L134.863 89.2902H132.173L131.412 88.0498L128.387 83.163L126.997 80.9229L124.4 85.0319H128.631L129.78 86.8468Z" fill="white"/>
<path d="M158.428 86.8468H152.046L150.562 89.2902H147.871L153.956 79.5726C154.16 79.2387 154.383 78.998 154.624 78.8134C154.865 78.6102 155.254 78.4795 155.682 78.4795C156.11 78.4795 156.553 78.6081 156.794 78.8134C157.035 78.998 157.22 79.2387 157.408 79.5726L163.511 89.2902H160.821L160.06 88.0498L157.035 83.163L155.645 80.9229L153.048 85.0319H157.279L158.428 86.8468Z" fill="white"/>
<path d="M205.165 86.8468H198.783L197.298 89.2902H194.608L200.693 79.5726C200.897 79.2387 201.119 78.998 201.361 78.8134C201.602 78.6102 201.991 78.4795 202.419 78.4795C202.847 78.4795 203.29 78.6081 203.568 78.8134C203.81 78.998 204.013 79.2387 204.198 79.5726L210.283 89.2902H207.612L206.832 88.0498L203.808 83.163L202.417 80.9229L199.837 85.0319H204.049L205.198 86.8468H205.161H205.165Z" fill="white"/>
<path d="M190.434 78.7578H192.735V89.2906H190.434V78.7578Z" fill="white"/>
<path d="M140.005 89.2906C139.225 89.2906 138.614 89.2346 138.038 89.106C137.556 88.9027 137.167 88.7181 136.832 88.4775C136.497 88.1436 136.256 87.8117 136.165 87.3305C136.165 87.2745 146.424 87.2745 146.424 87.2745V89.2927H139.949H140.005V89.2906ZM136.071 86.5132V78.7578H138.373V85.6068C138.373 85.8474 138.373 86.1814 138.502 86.366V86.5692H136.071V86.5132Z" fill="white"/>
<path d="M115.903 89.1054V82.1631L110.783 88.8648C110.542 89.1988 110.153 89.29 109.725 89.29C109.296 89.29 108.908 89.1428 108.704 88.8648L103.584 82.1631L101.469 79.3857V79.2385C101.469 78.9045 101.617 78.6639 101.858 78.5726C102.099 78.388 102.434 78.332 102.712 78.332C103.01 78.332 103.195 78.388 103.38 78.4793C103.584 78.5166 103.715 78.6639 103.825 78.8485L109.762 86.7533L115.718 78.8485C115.866 78.6639 115.96 78.5146 116.145 78.4793C116.292 78.4233 116.533 78.332 116.774 78.332C117.163 78.332 117.404 78.388 117.629 78.5726C117.87 78.7199 118.018 78.9605 118.018 79.2385V89.1054H115.903ZM103.584 83.4035V89.1054H101.469V80.6282L103.584 83.4055V83.4035Z" fill="white"/>
<path d="M177.278 89.2905V87.2723H185.292C185.681 87.2723 185.96 87.2349 186.164 87.0877C186.349 86.9404 186.498 86.6998 186.498 86.4219V85.8473C186.498 85.4594 186.351 85.2728 186.164 85.0881C185.96 84.9409 185.681 84.8849 185.292 84.8849H180.247C179.671 84.8849 179.207 84.8475 178.819 84.7003C178.43 84.6443 178.151 84.4597 177.854 84.2751C177.669 84.0345 177.465 83.7378 177.428 83.406C177.28 83.072 177.28 82.7402 177.28 82.2029V81.5371H179.394V82.1656C179.394 82.4995 179.394 82.7402 179.579 82.8314C179.783 82.9787 180.024 83.016 180.397 83.016H185.351C185.927 83.016 186.39 83.072 186.779 83.2193C187.205 83.2566 187.558 83.4599 187.781 83.6445C188.022 83.8851 188.226 84.1257 188.376 84.4597C188.504 84.8475 188.561 85.2188 188.561 85.7V86.5152C188.561 86.9964 188.561 87.4776 188.376 87.7556C188.228 88.1434 188.022 88.384 187.781 88.6247C187.558 88.8093 187.205 88.9586 186.779 89.0499C186.39 89.1971 185.924 89.2345 185.351 89.2345H177.187H177.28V89.2905H177.278ZM177.372 80.7759V80.3507C177.519 79.9628 177.706 79.6662 177.948 79.4816C178.151 79.241 178.43 79.0564 178.819 78.907C179.207 78.851 179.673 78.7598 180.209 78.7598H188.558V80.778H177.334H177.372V80.7759Z" fill="white"/>
<path d="M167.501 89.2907V84.2732L161.341 78.7559H164.476L167.389 81.3839L170.282 83.8833L169.8 84.3085V89.2326H167.499V89.2886L167.501 89.2907ZM169.318 82.0144L173.066 78.7559H175.979L170.858 83.4021L169.262 82.0144H169.318Z" fill="white"/>
<path d="M88.4987 112.559C87.4031 112.559 86.4759 111.634 86.4759 110.541C86.4759 109.448 87.4031 108.522 88.4987 108.522C89.5943 108.522 90.5215 109.448 90.5215 110.541C90.5215 111.634 89.5943 112.559 88.4987 112.559Z" fill="#C0F43C"/>
<path d="M87.1994 122.741C85.9 122.741 84.3242 122.167 84.3242 119.595V115.948C84.3242 114.614 83.6007 113.839 82.3575 113.839C81.1143 113.839 80.2432 114.708 80.2432 116.041V122.65H77.0333V111.117H80.2432V112.024C80.9667 111.302 82.0249 110.931 83.1745 110.931C85.9021 110.931 87.5341 112.746 87.5341 115.614V119.057C87.5341 119.873 87.6817 119.873 87.979 119.873H88.6463C88.6463 119.835 88.6463 122.613 88.6463 122.613L88.4052 122.706C88.0705 122.799 87.6817 122.834 87.1994 122.834V122.741Z" fill="white"/>
<path d="M74.4346 112.503C73.2476 111.3 71.7445 110.726 70.0189 110.726C68.2934 110.726 66.8091 111.3 65.6033 112.503C64.4162 113.65 63.7842 115.131 63.7842 116.815C63.7842 118.5 64.4141 119.962 65.6033 121.109C66.8091 122.256 68.2934 122.887 70.0189 122.887C71.7445 122.887 73.2476 122.312 74.4346 121.109C75.6404 119.925 76.2724 118.481 76.2724 116.815C76.2724 115.15 75.6425 113.65 74.4346 112.503ZM72.1894 119.058C71.6135 119.632 70.89 119.927 70.0189 119.927C69.1479 119.927 68.441 119.63 67.8111 119.058C67.2352 118.446 66.9567 117.724 66.9567 116.855C66.9567 115.986 67.2352 115.227 67.8111 114.652C68.387 114.077 69.1104 113.746 70.0189 113.746C70.9274 113.746 71.6156 114.042 72.1894 114.652C72.7652 115.227 73.0438 116.002 73.0438 116.855C73.0438 117.707 72.7652 118.483 72.1894 119.058Z" fill="white"/>
<path d="M59.6097 122.944C57.828 122.944 56.3998 122.37 55.194 121.223C54.0069 120.076 53.3749 118.576 53.3749 116.854C53.3749 115.133 53.9508 113.652 55.194 112.561C56.3998 111.414 57.8841 110.783 59.6097 110.783C61.3352 110.783 62.9672 111.449 64.2104 112.801L64.4141 112.986L62.3539 115.095L62.1127 114.855C61.4267 114.133 60.5161 113.745 59.5702 113.745C58.6242 113.745 57.9735 114.042 57.3997 114.614C56.8239 115.189 56.5453 115.948 56.5453 116.817C56.5453 117.686 56.8239 118.445 57.3997 119.02C57.9756 119.594 58.6991 119.872 59.5702 119.872C60.4412 119.872 61.3892 119.503 62.1127 118.779L62.3539 118.539L64.4141 120.648L64.2104 120.833C62.9672 122.166 61.4267 122.832 59.6097 122.832V122.944Z" fill="white"/>
<path d="M48.2004 122.889C45.9364 122.889 44.1548 122.036 43.396 120.501L43.3024 120.261L45.4167 118.446L45.6017 118.724C46.084 119.502 47.0861 119.927 48.1983 119.927C49.3106 119.927 49.8303 119.833 49.8303 119.058C49.8303 118.282 49.4769 118.539 49.3854 118.483C49.2004 118.336 48.7181 118.205 48.4395 118.114L48.1422 118.002C47.8075 117.909 47.3813 117.761 47.084 117.633C45.1173 116.911 44.2088 115.855 44.2088 114.283C44.2088 112.711 44.635 112.321 45.4146 111.636C46.2316 111.024 47.2337 110.692 48.3272 110.692C49.9592 110.692 51.2211 111.267 52.1317 112.414L52.2606 112.655L50.4062 114.654L50.165 114.376C49.7201 113.839 49.1068 113.598 48.2919 113.598C47.4769 113.598 47.2711 113.802 47.2711 114.283C47.2711 114.764 47.3834 114.561 47.6245 114.764C47.6245 114.764 47.847 114.893 48.4416 115.133C48.7201 115.227 49.2399 115.374 49.6286 115.521H49.8324C51.9841 116.336 52.9487 117.427 52.9487 119.112C52.9487 120.796 51.1109 122.889 48.1443 122.889H48.2004Z" fill="white"/>
<path d="M41.9095 112.447C40.8513 111.354 39.4605 110.781 37.7724 110.781C36.0843 110.781 34.5625 111.356 33.469 112.447C32.3567 113.557 31.7809 115.037 31.7809 116.852V116.946C31.7809 118.723 32.3567 120.204 33.469 121.258C34.5646 122.314 36.0489 122.886 37.8847 122.886C39.7204 122.886 41.3731 122.22 42.6725 120.831L42.9136 120.59L40.8908 118.628L40.6684 118.869C39.8888 119.628 38.9803 120.016 37.9221 120.016C36.2901 120.016 35.1945 119.146 34.9908 117.813H43.396V117.516C43.396 117.238 43.4895 116.942 43.4895 116.572C43.4895 114.944 42.9698 113.554 41.9116 112.445L41.9095 112.447ZM35.1384 115.374C35.286 114.948 35.5271 114.558 35.918 114.28C36.4377 113.837 37.0676 113.652 37.8285 113.652C38.5894 113.652 39.0717 113.837 39.5541 114.28C39.9428 114.558 40.1299 114.946 40.2214 115.374H35.1384Z" fill="white"/>
<path d="M27.6063 122.611H24.3965V111.06H27.6063V111.985C28.2737 111.263 29.3319 110.875 30.5377 110.875C31.7435 110.875 31.1135 110.875 31.3921 110.968H31.6333V114.19L31.2632 114.078C30.9285 113.984 30.5772 113.984 30.2425 113.984C28.6105 113.984 27.6084 114.984 27.6084 116.575V122.609L27.6063 122.611Z" fill="white"/>
<path d="M21.7603 122.945C19.2552 122.945 17.9205 121.557 17.9205 118.908V114.077H16.5671V111.059H17.9205V106.913H21.1304V111.059H23.5233V114.077H21.1304V118.63C21.1304 119.723 21.4651 119.927 22.1886 119.927C22.9121 119.927 22.7645 119.927 23.0056 119.833L23.3944 119.721V122.702H23.1532C22.7645 122.83 22.2822 122.886 21.7624 122.886V122.942L21.7603 122.945Z" fill="white"/>
<path d="M0.0727692 119.539V111.783H3.70885C4.2473 111.783 4.67348 111.877 5.09966 112.08C5.48843 112.264 5.82314 112.505 6.00816 112.839C6.24932 113.173 6.34287 113.505 6.34287 113.949C6.34287 114.393 6.24932 114.614 6.0643 114.892C5.91669 115.189 5.67553 115.43 5.34082 115.558C5.72958 115.762 6.00816 116.002 6.24932 116.28C6.49048 116.577 6.58403 116.946 6.58403 117.299C6.58403 117.632 6.49048 118.114 6.24932 118.483C6.00816 118.817 5.72958 119.057 5.3034 119.298C4.85851 119.501 4.43232 119.595 3.85645 119.595H0.0727692V119.539ZM1.70474 114.946H3.6153C3.95001 114.946 4.24522 114.853 4.43232 114.706C4.61943 114.558 4.72961 114.318 4.72961 114.04C4.72961 113.743 4.61735 113.503 4.43232 113.374C4.2473 113.227 3.95001 113.134 3.6153 113.134H1.70474V114.948V114.946ZM1.70474 118.205H3.80032C4.18909 118.205 4.48637 118.112 4.6714 117.908C4.91256 117.724 5.00611 117.483 5.00611 117.186C5.00611 116.909 4.91256 116.612 4.6714 116.483C4.43024 116.28 4.13295 116.187 3.80032 116.187H1.70474V118.205Z" fill="white"/>
<path d="M9.66503 119.539V116.577L6.49255 111.783H8.36569L10.5174 115.133L12.7252 111.783H14.5069L11.3344 116.577V119.539H9.66503Z" fill="white"/>
</g>
<defs>
<clipPath id="clip0_46_2671">
<rect width="237" height="123" fill="white"/>
</clipPath>
</defs>
</svg>
